<svg width="32" height="32" viewBox="0 0 32 32" fill="none" xmlns="http://www.w3.org/2000/svg">
<path id="Vector" d="M15.618 0.893783C16.368 0.396778 17.2471 0.127229 18.1483 0.117925C19.0496 0.108621 19.9341 0.359962 20.6943 0.841376L27.133 4.91681H29.7835C30.1946 4.91681 30.5888 5.0792 30.8795 5.36827C31.1702 5.65734 31.3335 6.04939 31.3335 6.4582V20.3307C31.3335 20.7395 31.1702 21.1316 30.8795 21.4206C30.5888 21.7097 30.1946 21.8721 29.7835 21.8721H27.4275C27.4772 22.6227 27.3175 23.3723 26.9661 24.0384C26.6146 24.7045 26.0851 25.2611 25.4357 25.6469L17.5416 30.3574C17.0565 30.6466 16.5012 30.7983 15.9356 30.7962C15.3701 30.794 14.8159 30.638 14.3331 30.3451C13.7893 30.8229 13.0942 31.0959 12.3688 31.1164C11.6435 31.137 10.9338 30.9038 10.3635 30.4576L2.39655 24.2319C1.83964 23.7974 1.44906 23.1864 1.28974 22.5005C1.13042 21.8146 1.21196 21.0951 1.5208 20.4617C1.15067 20.1731 0.851421 19.8046 0.645717 19.384C0.440013 18.9634 0.333244 18.5017 0.333497 18.034V6.4582C0.333497 6.04939 0.4968 5.65734 0.787481 5.36827C1.07816 5.0792 1.47241 4.91681 1.8835 4.91681H9.55135L15.618 0.893783ZM3.70165 18.2437L4.77425 17.3111C5.69089 16.5137 6.88551 16.1058 8.10138 16.175C9.31724 16.2442 10.4573 16.7849 11.2765 17.681L15.4646 22.2621C16.1214 22.9804 16.5341 23.8862 16.6443 24.8509C16.7544 25.8156 16.5564 26.7903 16.0784 27.6369L23.8423 23.005C24.0447 22.8829 24.1983 22.6949 24.2769 22.4728C24.3555 22.2508 24.3542 22.0085 24.2732 21.7873L17.4114 12.2338C17.2235 11.9719 16.9579 11.7751 16.6519 11.6709C16.3458 11.5667 16.0147 11.5603 15.7048 11.6527L11.8515 12.801C11.0474 13.0409 10.193 13.0597 9.37894 12.8557C8.56489 12.6516 7.82158 12.2322 7.2279 11.6419L6.77375 11.1918C6.36184 10.7822 6.0743 10.2656 5.94408 9.70096C5.81386 9.13637 5.84624 8.54672 6.0375 7.99958H3.4335V18.034L3.70165 18.2437ZM19.0311 3.44324C18.7774 3.28249 18.4821 3.19865 18.1813 3.20193C17.8805 3.20522 17.5871 3.29549 17.337 3.46174L8.967 9.01073L9.4196 9.46236C9.6177 9.65912 9.86569 9.79885 10.1372 9.8667C10.4088 9.93455 10.6937 9.92799 10.9618 9.84771L14.8136 8.69937C15.743 8.42222 16.7363 8.44113 17.6544 8.75347C18.5725 9.06581 19.3693 9.65592 19.9332 10.4411L25.9317 18.7893H28.2335V7.99958H27.1345C26.5448 7.99951 25.9673 7.83214 25.4698 7.51713L19.0311 3.44324ZM6.81405 19.6294L4.30925 21.8089L12.2762 28.0346L13.369 26.1356C13.5314 25.8527 13.5995 25.526 13.5636 25.2023C13.5276 24.8786 13.3895 24.5745 13.169 24.3337L8.9825 19.7527C8.70944 19.4541 8.32953 19.274 7.92437 19.2509C7.51921 19.2278 7.11957 19.3637 6.81405 19.6294Z" fill="#B8FE22"/>
</svg>
