<svg width="13" height="13" viewBox="0 0 13 13" fill="none" xmlns="http://www.w3.org/2000/svg">
<g id="Iconsax/Linear/candle2" clip-path="url(#clip0_13847_8980)">
<path id="Vector" d="M11.3945 9.25H7.89453M2.89453 9.25H1.39453M11.3945 3.75H9.89453M4.89453 3.75H1.39453M3.89453 7.75H6.89453C7.44453 7.75 7.89453 8 7.89453 8.75V9.75C7.89453 10.5 7.44453 10.75 6.89453 10.75H3.89453C3.34453 10.75 2.89453 10.5 2.89453 9.75V8.75C2.89453 8 3.34453 7.75 3.89453 7.75ZM5.89453 2.25H8.89453C9.44453 2.25 9.89453 2.5 9.89453 3.25V4.25C9.89453 5 9.44453 5.25 8.89453 5.25H5.89453C5.34453 5.25 4.89453 5 4.89453 4.25V3.25C4.89453 2.5 5.34453 2.25 5.89453 2.25Z" stroke="#F4F4F4" stroke-width="1.25" stroke-linecap="round" stroke-linejoin="round"/>
</g>
<defs>
<clipPath id="clip0_13847_8980">
<rect width="12" height="12" fill="white" transform="translate(0.394531 0.5)"/>
</clipPath>
</defs>
</svg>
