<svg width="9" height="9" viewBox="0 0 9 9" fill="none" xmlns="http://www.w3.org/2000/svg">
<path id="Vector" d="M0.394531 0.5H8.39453M1.84908 0.5V2.31818C1.84908 3.40909 3.66726 3.49455 3.66726 4.5C3.66726 5.50545 1.84908 5.59091 1.84908 6.68182V8.5M6.93999 0.5V2.31818C6.93999 3.40909 5.1218 3.49455 5.1218 4.5C5.1218 5.50545 6.93999 5.59091 6.93999 6.68182V8.5M0.394531 8.5H8.39453M3.66726 1.77273H5.1218V2.31818C5.1218 2.68182 4.39453 3.04545 4.39453 3.04545C4.39453 3.04545 3.66726 2.68182 3.66726 2.31818V1.77273ZM2.93999 7.77273C2.93999 7.04545 4.39453 6.31818 4.39453 6.31818C4.39453 6.31818 5.84908 7.04545 5.84908 7.77273V8.5H2.93999V7.77273Z" stroke="#F4F4F4" stroke-width="0.8"/>
</svg>
