<svg width="14" height="12" viewBox="0 0 14 12" fill="none" xmlns="http://www.w3.org/2000/svg">
<path d="M9.88971 10.75C9.88971 9.64543 8.4083 8.75 6.58088 8.75C4.75347 8.75 3.27206 9.64543 3.27206 10.75M12.5368 8.75025C12.5368 7.93012 11.7201 7.22529 10.5515 6.91667M0.625 8.75025C0.625 7.93012 1.44168 7.22529 2.61029 6.91667M10.5515 4.24074C10.9576 3.87452 11.2132 3.34233 11.2132 2.75C11.2132 1.64543 10.3244 0.75 9.22794 0.75C8.71947 0.75 8.25565 0.942569 7.90441 1.25926M2.61029 4.24074C2.20414 3.87452 1.94853 3.34233 1.94853 2.75C1.94853 1.64543 2.83738 0.75 3.93382 0.75C4.44229 0.75 4.90612 0.942569 5.25735 1.25926M6.58088 6.75C5.48443 6.75 4.59559 5.85457 4.59559 4.75C4.59559 3.64543 5.48443 2.75 6.58088 2.75C7.67733 2.75 8.56618 3.64543 8.56618 4.75C8.56618 5.85457 7.67733 6.75 6.58088 6.75Z" stroke="#F4F4F4" stroke-width="1.25" stroke-linecap="round" stroke-linejoin="round"/>
</svg>
