<svg width="15" height="13" viewBox="0 0 15 13" fill="none" xmlns="http://www.w3.org/2000/svg">
<path d="M1.84375 12.0312H13.1562C13.3438 12.0312 13.5 11.875 13.5 11.6875V10.8438H1.5V11.6875C1.5 11.9062 1.65625 12.0312 1.84375 12.0312ZM14.0625 2.03125C13.5312 2.03125 13.125 2.4375 13.125 2.96875C13.125 3.21875 13.2188 3.46875 13.4062 3.625L10.5938 6.5L7.9375 1.75C8.21875 1.59375 8.40625 1.28125 8.40625 0.9375C8.40625 0.40625 8 0 7.46875 0C6.9375 0 6.53125 0.40625 6.53125 0.9375C6.53125 1.28125 6.71875 1.59375 7 1.75L4.34375 6.5L1.53125 3.625C1.78125 3.46875 1.875 3.21875 1.875 2.96875C1.875 2.4375 1.46875 2.03125 0.9375 2.03125C0.40625 2.03125 0 2.4375 0 2.96875C0 3.5 0.40625 3.90625 0.9375 3.90625C0.96875 3.90625 1 3.90625 1 3.90625L1.5 10.2812H13.5L14 3.90625C14.0312 3.90625 14.0625 3.90625 14.0625 3.90625C14.5938 3.90625 15 3.5 15 2.96875C15 2.46875 14.5938 2.03125 14.0625 2.03125Z" fill="#B8FE22"/>
</svg>
