<svg width="11" height="11" viewBox="0 0 11 11" fill="none" xmlns="http://www.w3.org/2000/svg">
<path d="M5.5 10.5C6.15673 10.5008 6.80714 10.3718 7.41388 10.1205C8.02061 9.86919 8.5717 9.50046 9.0355 9.0355C9.50046 8.5717 9.86919 8.02061 10.1205 7.41388C10.3718 6.80714 10.5008 6.15673 10.5 5.5C10.5008 4.84327 10.3718 4.19286 10.1205 3.58612C9.86919 2.97939 9.50046 2.4283 9.0355 1.9645C8.5717 1.49954 8.02061 1.13081 7.41388 0.879482C6.80714 0.628157 6.15673 0.499194 5.5 0.500004C4.84327 0.499194 4.19286 0.628157 3.58612 0.879482C2.97939 1.13081 2.4283 1.49954 1.9645 1.9645C1.49954 2.4283 1.13081 2.97939 0.879482 3.58612C0.628157 4.19286 0.499194 4.84327 0.500004 5.5C0.499194 6.15673 0.628157 6.80714 0.879482 7.41388C1.13081 8.02061 1.49954 8.5717 1.9645 9.0355C2.4283 9.50046 2.97939 9.86919 3.58612 10.1205C4.19286 10.3718 4.84327 10.5008 5.5 10.5Z" stroke="#063434" stroke-linejoin="round"/>
</svg>
