<svg width="13" height="12" viewBox="0 0 13 12" fill="none" xmlns="http://www.w3.org/2000/svg">
<path d="M3.83333 3.08824V1.79412C3.83333 1.4509 3.97381 1.12173 4.22386 0.879038C4.47391 0.636344 4.81304 0.5 5.16667 0.5H7.83333C8.18696 0.5 8.52609 0.636344 8.77614 0.879038C9.02619 1.12173 9.16667 1.4509 9.16667 1.79412V3.08824M6.5 6.32353V6.33M0.5 6.97057C2.36105 7.88078 4.41602 8.35491 6.5 8.35491C8.58398 8.35491 10.6389 7.88078 12.5 6.97057M0.5 4.38235C0.5 4.03913 0.640476 3.70997 0.890524 3.46727C1.14057 3.22458 1.47971 3.08824 1.83333 3.08824H11.1667C11.5203 3.08824 11.8594 3.22458 12.1095 3.46727C12.3595 3.70997 12.5 4.03913 12.5 4.38235V10.2059C12.5 10.5491 12.3595 10.8783 12.1095 11.121C11.8594 11.3637 11.5203 11.5 11.1667 11.5H1.83333C1.47971 11.5 1.14057 11.3637 0.890524 11.121C0.640476 10.8783 0.5 10.5491 0.5 10.2059V4.38235Z" stroke="#F4F4F4" stroke-linecap="round" stroke-linejoin="round"/>
</svg>
