<svg width="10" height="11" viewBox="0 0 10 11" fill="none" xmlns="http://www.w3.org/2000/svg">
<path fill-rule="evenodd" clip-rule="evenodd" d="M2.25806 2.75344C2.25806 2.39185 2.32899 2.03381 2.46678 1.69974C2.60458 1.36568 2.80655 1.06214 3.06116 0.806464C3.31577 0.550783 3.61804 0.347966 3.95071 0.209593C4.28337 0.0712197 4.63992 0 5 0C5.36008 0 5.71663 0.0712197 6.04929 0.209593C6.38196 0.347966 6.68423 0.550783 6.93884 0.806464C7.19345 1.06214 7.39542 1.36568 7.53322 1.69974C7.67101 2.03381 7.74194 2.39185 7.74194 2.75344C7.74194 3.4837 7.45305 4.18405 6.93884 4.70042C6.42463 5.21679 5.72721 5.50688 5 5.50688C4.27279 5.50688 3.57537 5.21679 3.06116 4.70042C2.54695 4.18405 2.25806 3.4837 2.25806 2.75344ZM5 0.971802C4.52945 0.971802 4.07818 1.15951 3.74546 1.49363C3.41273 1.82775 3.22581 2.28092 3.22581 2.75344C3.22581 3.22596 3.41273 3.67913 3.74546 4.01325C4.07818 4.34737 4.52945 4.53508 5 4.53508C5.47055 4.53508 5.92182 4.34737 6.25454 4.01325C6.58727 3.67913 6.77419 3.22596 6.77419 2.75344C6.77419 2.28092 6.58727 1.82775 6.25454 1.49363C5.92182 1.15951 5.47055 0.971802 5 0.971802ZM2.41935 7.45048C2.03436 7.45048 1.66514 7.60406 1.39291 7.87743C1.12068 8.15081 0.967742 8.52158 0.967742 8.90819V9.67785C0.967742 9.68952 0.976129 9.69988 0.987742 9.70183C3.64516 10.1372 6.35548 10.1372 9.01226 9.70183C9.01774 9.70056 9.02265 9.69754 9.02626 9.69321C9.02987 9.68888 9.03198 9.68349 9.03226 9.67785V8.90819C9.03226 8.52158 8.87932 8.15081 8.60709 7.87743C8.33486 7.60406 7.96564 7.45048 7.58065 7.45048H7.36129C7.34403 7.45078 7.32689 7.4534 7.31032 7.45826L6.75226 7.6416C5.61367 8.01495 4.38633 8.01495 3.24774 7.6416L2.68903 7.45826C2.67288 7.45351 2.65618 7.45089 2.63935 7.45048H2.41935ZM0 8.90819C0 8.26384 0.254896 7.64589 0.708613 7.19027C1.16233 6.73465 1.7777 6.47868 2.41935 6.47868H2.63871C2.75914 6.47911 2.87613 6.49769 2.98968 6.5344L3.54839 6.71774C4.49163 7.02697 5.50837 7.02697 6.45161 6.71774L7.01032 6.5344C7.12323 6.49747 7.24194 6.47868 7.36065 6.47868H7.58065C8.2223 6.47868 8.83767 6.73465 9.29139 7.19027C9.7451 7.64589 10 8.26384 10 8.90819V9.67785C10 10.1663 9.64774 10.5823 9.16774 10.6607C6.40751 11.1131 3.59249 11.1131 0.832258 10.6607C0.600118 10.6223 0.389063 10.5025 0.236659 10.3225C0.0842553 10.1425 0.000393016 9.9141 0 9.67785V8.90819Z" fill="#F4F4F4"/>
</svg>
