<svg width="12" height="11" viewBox="0 0 12 11" fill="none" xmlns="http://www.w3.org/2000/svg">
<path d="M11.4131 3.12751C12.0529 4.3542 12.1744 5.75467 11.754 7.05863C11.3337 8.36259 10.4013 9.4776 9.13684 10.1885C7.87239 10.8993 6.36551 11.1556 4.90701 10.908C3.44852 10.6603 2.14181 9.92613 1.23909 8.84722C0.336363 7.76831 -0.098386 6.42113 0.018747 5.06567C0.13588 3.71022 0.796592 2.44258 1.87336 1.50741C2.95014 0.572244 4.36664 0.0358427 5.84948 0.0017325C7.33233 -0.0323777 8.7764 0.438222 9.90298 1.3227L11.2096 0.124436C11.2961 0.0451256 11.4135 0.000569683 11.5358 0.000569683C11.6582 0.000569683 11.7755 0.0451256 11.8621 0.124436C11.9486 0.203746 11.9972 0.311313 11.9972 0.423475C11.9972 0.535636 11.9486 0.643203 11.8621 0.722513L6.32893 5.79455C6.24241 5.87386 6.12506 5.91842 6.0027 5.91842C5.88034 5.91842 5.763 5.87386 5.67648 5.79455C5.58996 5.71524 5.54135 5.60768 5.54135 5.49551C5.54135 5.38335 5.58996 5.27578 5.67648 5.19647L7.27417 3.73192C6.84117 3.46942 6.32421 3.34856 5.80695 3.3889C5.28969 3.42924 4.80243 3.62842 4.42404 3.95421C4.04564 4.27999 3.79827 4.7133 3.72196 5.184C3.64566 5.65469 3.74488 6.13522 4.00358 6.54778C4.26227 6.96035 4.66529 7.28081 5.1474 7.45729C5.62951 7.63376 6.16248 7.65593 6.66003 7.52019C7.15759 7.38444 7.59061 7.09875 7.88899 6.70934C8.18737 6.31994 8.33364 5.84962 8.30414 5.37452C8.30073 5.31902 8.30929 5.26344 8.32931 5.21097C8.34934 5.15849 8.38044 5.11014 8.42085 5.06869C8.46126 5.02723 8.51018 4.99348 8.56482 4.96935C8.61946 4.94523 8.67875 4.9312 8.7393 4.92808C8.86159 4.92177 8.9816 4.96026 9.07294 5.03506C9.11816 5.07211 9.15499 5.11695 9.1813 5.16703C9.20762 5.21712 9.22292 5.27147 9.22633 5.32697C9.26836 5.99943 9.05884 6.66491 8.63238 7.21342C8.20591 7.76192 7.58804 8.16063 6.88089 8.34363C6.17374 8.52663 5.41964 8.48298 4.74322 8.21988C4.0668 7.95679 3.50855 7.49 3.16075 6.89667C2.81295 6.30335 2.69642 5.61899 2.83041 4.95673C2.96439 4.29446 3.34088 3.69392 3.89765 3.25437C4.45442 2.81482 5.15814 2.56257 5.89249 2.53931C6.62685 2.51605 7.34788 2.72318 7.93642 3.12645L9.24765 1.92448C8.28673 1.19315 7.06493 0.813051 5.81691 0.857174C4.56889 0.901297 3.38266 1.36654 2.48604 2.16354C1.58942 2.96053 1.04565 4.03309 0.959159 5.17521C0.872667 6.31733 1.24955 7.44848 2.01744 8.3514C2.78532 9.25431 3.89005 9.86534 5.11945 10.0671C6.34885 10.2689 7.61622 10.0472 8.67816 9.44456C9.7401 8.84196 10.5217 7.90095 10.8729 6.80227C11.2241 5.70359 11.12 4.52471 10.5808 3.49206C10.5281 3.39089 10.5213 3.27466 10.5621 3.16894C10.6028 3.06322 10.6877 2.97666 10.7981 2.92832C10.9085 2.87998 11.0352 2.87381 11.1506 2.91116C11.2659 2.94851 11.3603 3.02634 11.4131 3.12751Z" fill="#F4F4F4"/>
</svg>
