<svg width="81" height="81" viewBox="0 0 81 81" fill="none" xmlns="http://www.w3.org/2000/svg">
<g id="ic:baseline-business">
<path id="Vector" d="M40.6663 23.9564V10.623H7.33301V70.623H73.9997V23.9564H40.6663ZM20.6663 63.9564H13.9997V57.2897H20.6663V63.9564ZM20.6663 50.623H13.9997V43.9564H20.6663V50.623ZM20.6663 37.2897H13.9997V30.623H20.6663V37.2897ZM20.6663 23.9564H13.9997V17.2897H20.6663V23.9564ZM33.9997 63.9564H27.333V57.2897H33.9997V63.9564ZM33.9997 50.623H27.333V43.9564H33.9997V50.623ZM33.9997 37.2897H27.333V30.623H33.9997V37.2897ZM33.9997 23.9564H27.333V17.2897H33.9997V23.9564ZM67.333 63.9564H40.6663V57.2897H47.333V50.623H40.6663V43.9564H47.333V37.2897H40.6663V30.623H67.333V63.9564ZM60.6663 37.2897H53.9997V43.9564H60.6663V37.2897ZM60.6663 50.623H53.9997V57.2897H60.6663V50.623Z" fill="black"/>
</g>
</svg>
