<svg width="24" height="24" viewBox="0 0 24 24" fill="none" xmlns="http://www.w3.org/2000/svg">
  <path d="M12.2016 2.26545C11.0973 2.26975 10.0059 2.3574 9.06055 2.48975L9.49883 4.0899C11.2992 3.72123 13.1813 3.83983 15.0719 4.0942L15.407 2.5499C14.4188 2.34279 13.3059 2.26158 12.2016 2.26545ZM8.40313 2.96498C7.96055 3.07756 7.52657 3.21119 7.11407 3.36502C6.76172 3.49608 6.54258 3.77752 6.29336 4.14404C6.04414 4.51014 5.78633 4.9785 5.52422 5.52033C4.99571 6.60315 4.44442 7.97385 3.93953 9.32737C3.4527 10.6336 3.01227 11.9141 2.68442 12.8938C2.94524 12.6875 3.2675 12.5543 3.61168 12.5629C3.90946 11.6863 4.27125 10.6508 4.66442 9.59807C5.16414 8.25744 5.71329 6.89963 6.22032 5.85979C6.47383 5.33557 6.71875 4.89256 6.9336 4.58018C7.14844 4.26608 7.35899 4.09807 7.38047 4.08947C7.77149 3.94467 8.17969 3.82006 8.60079 3.71479L8.40313 2.96498ZM16.0602 3.18971L15.8926 3.95584C16.3781 4.12686 16.8379 4.3344 17.2676 4.57846C17.3922 4.64807 17.6328 4.90545 17.8777 5.30979C18.1184 5.71369 18.3805 6.2508 18.6383 6.87385C19.1625 8.11565 19.6867 9.6926 20.1551 11.2352C20.2883 11.6821 20.4215 12.1246 20.5461 12.5543C20.8598 12.5973 21.152 12.7477 21.384 12.9625C21.4227 12.9969 21.457 13.0313 21.4914 13.0699C21.3066 12.4125 21.109 11.7164 20.8941 11.0117C20.4258 9.45197 19.893 7.85783 19.3516 6.57307C19.0852 5.92854 18.8102 5.36565 18.5395 4.90975C18.2645 4.456 18.0023 4.10752 17.6543 3.90729C17.1516 3.62197 16.6188 3.38393 16.0602 3.18971ZM14.6766 9.87737L9.24961 9.92463L9.22813 9.92893C7.92618 10.0664 6.9336 11.2395 6.74883 12.7649C7.01094 12.7778 7.26875 12.7906 7.52227 12.7992C7.68555 11.6047 8.4418 10.7926 9.30547 10.6981L14.6035 10.6508C15.2738 10.7625 15.9914 11.45 16.1762 12.752C16.4297 12.7391 16.6875 12.7305 16.9496 12.7176C16.7391 11.1063 15.8109 10.0535 14.7066 9.88166L14.6766 9.87737ZM20.3441 13.3192C19.2055 13.3793 18.1227 13.4395 17.0785 13.4867C17.7574 16.1078 17.7273 18.7547 17.7231 21.3586C18.9734 21.2383 20.2582 21.0965 21.5902 20.9375C21.616 20.9332 21.6848 20.9074 21.7836 20.7184C21.8824 20.5336 21.977 20.2285 22.0371 19.8504C22.1617 19.0942 22.1746 18.0672 22.0672 17.0489C21.9555 16.0348 21.7191 15.0293 21.3926 14.3246C21.2293 13.9723 21.0445 13.6973 20.8641 13.534C20.6793 13.3707 20.5246 13.3106 20.3441 13.3192ZM3.54766 13.3364C3.40114 13.3406 3.27352 13.4008 3.12141 13.5426C2.94739 13.7016 2.7652 13.9766 2.60621 14.3289C2.28868 15.0379 2.0618 16.0563 1.94879 17.0875C1.83578 18.1188 1.83407 19.1672 1.93332 19.9449C1.98274 20.3317 2.06008 20.6539 2.14301 20.8473C2.22637 21.0449 2.29641 21.0578 2.24657 21.0492C3.55153 21.2684 4.82254 21.4274 6.07852 21.5391C5.83789 19.0383 5.92813 16.3914 6.58985 13.5297C5.64024 13.4867 4.65153 13.4223 3.61211 13.3406C3.5902 13.3406 3.56871 13.3364 3.54766 13.3364ZM16.2879 13.5211C13.2629 13.65 10.4957 13.6973 7.37188 13.5684C6.68868 16.4473 6.60274 19.0813 6.86055 21.6035C10.2035 21.8442 13.4606 21.7367 16.9496 21.4274C16.9539 18.7375 16.984 16.0821 16.2879 13.5211Z" fill="#5C7F11" />
</svg>