<svg width="16" height="16" viewBox="0 0 16 16" fill="none" xmlns="http://www.w3.org/2000/svg">
<path d="M7 10.6666C7 10.4014 7.10536 10.1471 7.29289 9.95952C7.48043 9.77198 7.73478 9.66663 8 9.66663C8.26522 9.66663 8.51957 9.77198 8.70711 9.95952C8.89464 10.1471 9 10.4014 9 10.6666V11.6666C9 11.9318 8.89464 12.1862 8.70711 12.3737C8.51957 12.5613 8.26522 12.6666 8 12.6666C7.73478 12.6666 7.48043 12.5613 7.29289 12.3737C7.10536 12.1862 7 11.9318 7 11.6666V10.6666Z" fill="#999999"/>
<path fill-rule="evenodd" clip-rule="evenodd" d="M4.50001 4.83337C4.50001 3.90512 4.86875 3.01488 5.52513 2.3585C6.18151 1.70212 7.07175 1.33337 8.00001 1.33337C8.92826 1.33337 9.8185 1.70212 10.4749 2.3585C11.1313 3.01488 11.5 3.90512 11.5 4.83337V6.08337H12.3333C12.7312 6.08337 13.1127 6.24141 13.394 6.52271C13.6753 6.80402 13.8333 7.18555 13.8333 7.58337V11.5C13.8333 11.9159 13.7514 12.3277 13.5923 12.7119C13.4332 13.0961 13.1999 13.4452 12.9058 13.7392C12.6118 14.0333 12.2627 14.2665 11.8785 14.4257C11.4943 14.5848 11.0825 14.6667 10.6667 14.6667H5.33334C4.49349 14.6667 3.68803 14.3331 3.09417 13.7392C2.5003 13.1453 2.16667 12.3399 2.16667 11.5V7.58337C2.16667 7.18555 2.32471 6.80402 2.60601 6.52271C2.88732 6.24141 3.26885 6.08337 3.66667 6.08337H4.50001V4.83337ZM5.50001 6.08337H10.5V4.83337C10.5 4.17033 10.2366 3.53445 9.76777 3.06561C9.29893 2.59677 8.66305 2.33337 8.00001 2.33337C7.33696 2.33337 6.70108 2.59677 6.23224 3.06561C5.7634 3.53445 5.50001 4.17033 5.50001 4.83337V6.08337ZM3.66667 7.08337C3.53406 7.08337 3.40689 7.13605 3.31312 7.22982C3.21935 7.32359 3.16667 7.45077 3.16667 7.58337V11.5C3.16667 12.0747 3.39494 12.6258 3.80127 13.0321C4.2076 13.4384 4.7587 13.6667 5.33334 13.6667H10.6667C11.2413 13.6667 11.7924 13.4384 12.1987 13.0321C12.6051 12.6258 12.8333 12.0747 12.8333 11.5V7.58337C12.8333 7.45077 12.7807 7.32359 12.6869 7.22982C12.5931 7.13605 12.4659 7.08337 12.3333 7.08337H3.66667Z" fill="#999999"/>
</svg>
