<svg width="16" height="16" viewBox="0 0 16 16" fill="none" xmlns="http://www.w3.org/2000/svg">
<path d="M2.34375 14.0156H13.6562C13.8438 14.0156 14 13.8594 14 13.6719V12.8281H2V13.6719C2 13.8906 2.15625 14.0156 2.34375 14.0156ZM14.5625 4.01562C14.0312 4.01562 13.625 4.42188 13.625 4.95312C13.625 5.20312 13.7188 5.45312 13.9062 5.60937L11.0938 8.48438L8.4375 3.73438C8.71875 3.57813 8.90625 3.26562 8.90625 2.92188C8.90625 2.39062 8.5 1.98438 7.96875 1.98438C7.4375 1.98438 7.03125 2.39062 7.03125 2.92188C7.03125 3.26562 7.21875 3.57813 7.5 3.73438L4.84375 8.48438L2.03125 5.60937C2.28125 5.45312 2.375 5.20312 2.375 4.95312C2.375 4.42188 1.96875 4.01562 1.4375 4.01562C0.90625 4.01562 0.5 4.42188 0.5 4.95312C0.5 5.48438 0.90625 5.89063 1.4375 5.89063C1.46875 5.89063 1.5 5.89063 1.5 5.89063L2 12.2656H14L14.5 5.89063C14.5312 5.89063 14.5625 5.89063 14.5625 5.89063C15.0938 5.89063 15.5 5.48438 15.5 4.95312C15.5 4.45312 15.0938 4.01562 14.5625 4.01562Z" fill="white"/>
</svg>
