<svg width="18" height="16" viewBox="0 0 18 16" fill="none" xmlns="http://www.w3.org/2000/svg">
<path d="M12.9779 14.3333C12.9779 12.8606 11.0027 11.6667 8.56618 11.6667C6.12963 11.6667 4.15441 12.8606 4.15441 14.3333M16.5074 11.667C16.5074 10.5735 15.4184 9.63372 13.8603 9.22222M0.625 11.667C0.625 10.5735 1.71391 9.63372 3.27206 9.22222M13.8603 5.65432C14.4018 5.16603 14.7426 4.45644 14.7426 3.66667C14.7426 2.19391 13.5575 1 12.0956 1C11.4176 1 10.7992 1.25676 10.3309 1.67902M3.27206 5.65432C2.73052 5.16603 2.38971 4.45644 2.38971 3.66667C2.38971 2.19391 3.57483 1 5.03676 1C5.71472 1 6.33316 1.25676 6.80147 1.67902M8.56618 9C7.10425 9 5.91912 7.80609 5.91912 6.33333C5.91912 4.86057 7.10425 3.66667 8.56618 3.66667C10.0281 3.66667 11.2132 4.86057 11.2132 6.33333C11.2132 7.80609 10.0281 9 8.56618 9Z" stroke="white" stroke-width="1.25" stroke-linecap="round" stroke-linejoin="round"/>
</svg>
