<svg width="16" height="16" viewBox="0 0 16 16" fill="none" xmlns="http://www.w3.org/2000/svg">
<path d="M1.5 8H5.11111M1.5 8C1.5 11.5899 4.41015 14.5 8 14.5M1.5 8C1.5 4.41015 4.41015 1.5 8 1.5M5.11111 8H10.8889M5.11111 8C5.11111 11.5899 6.40451 14.5 8 14.5M5.11111 8C5.11111 4.41015 6.40451 1.5 8 1.5M10.8889 8H14.5M10.8889 8C10.8889 4.41015 9.59549 1.5 8 1.5M10.8889 8C10.8889 11.5899 9.59549 14.5 8 14.5M14.5 8C14.5 4.41015 11.5899 1.5 8 1.5M14.5 8C14.5 11.5899 11.5899 14.5 8 14.5" stroke="white" stroke-linecap="round" stroke-linejoin="round"/>
</svg>
