<svg width="13" height="12" viewBox="0 0 13 12" fill="none" xmlns="http://www.w3.org/2000/svg">
<path d="M5.02689 0C3.66732 0 2.54321 1.07676 2.54321 2.43243C2.54321 3.78811 3.66732 4.86486 5.02689 4.86486C6.38646 4.86486 7.51057 3.78811 7.51057 2.43243C7.51057 1.07676 6.38646 0 5.02689 0ZM3.51619 2.43243C3.51619 1.63849 4.1804 0.972973 5.02689 0.972973C5.87338 0.972973 6.53759 1.63849 6.53759 2.43243C6.53759 3.22638 5.87338 3.89189 5.02689 3.89189C4.1804 3.89189 3.51619 3.22638 3.51619 2.43243ZM3.13738 6.23351C3.17889 6.22184 3.2684 6.22638 3.38646 6.30227C3.71857 6.51762 4.29457 6.80173 5.02689 6.80173C5.75921 6.80173 6.33521 6.51762 6.66797 6.30227C6.78473 6.22638 6.87489 6.22184 6.9164 6.23286C7.00938 6.25881 7.10192 6.28649 7.19403 6.31589L7.83294 6.52022C7.95454 6.5552 8.08499 6.54144 8.19661 6.48183C8.30823 6.42223 8.39223 6.32149 8.4308 6.20098C8.46937 6.08047 8.45946 5.94967 8.40319 5.83634C8.34691 5.72301 8.2487 5.63606 8.12938 5.59395L7.49111 5.38897C7.38602 5.35568 7.28051 5.32432 7.17457 5.29492C6.77759 5.18595 6.40073 5.31632 6.13932 5.48562C5.89932 5.6413 5.50754 5.82876 5.02689 5.82876C4.54689 5.82876 4.15446 5.64065 3.91446 5.48497C3.65305 5.31632 3.27619 5.18595 2.87921 5.29492C2.77327 5.32432 2.66776 5.35568 2.56267 5.38897L1.9244 5.59395C1.56183 5.70737 1.23067 5.90372 0.957181 6.16741C0.683695 6.4311 0.475408 6.75488 0.348836 7.11308C0.300187 7.25578 0.279431 7.3933 0.267755 7.50486L0.0154305 9.88735C-0.0883533 10.6508 0.335214 11.4363 1.17067 11.6303C1.9484 11.8106 3.199 12 5.02689 12C5.15591 12 5.27965 11.9487 5.37089 11.8575C5.46212 11.7663 5.51338 11.6425 5.51338 11.5135C5.51338 11.3845 5.46212 11.2607 5.37089 11.1695C5.27965 11.0783 5.15591 11.027 5.02689 11.027C3.26646 11.027 2.08981 10.8454 1.39121 10.6832C1.11424 10.6184 0.931971 10.357 0.979971 10.0151L0.981268 10.0067L1.23489 7.6067C1.24397 7.52627 1.25435 7.47178 1.26862 7.43092C1.34571 7.2156 1.47189 7.02119 1.63718 6.86311C1.80246 6.70504 2.00229 6.58764 2.22084 6.52022L2.85976 6.31589C2.95186 6.28649 3.0444 6.25946 3.13738 6.23351ZM11.8572 8.93838C11.905 8.89384 11.9433 8.84013 11.9699 8.78046C11.9965 8.72078 12.0108 8.65636 12.0119 8.59104C12.0131 8.52572 12.0011 8.46084 11.9766 8.40026C11.9521 8.33968 11.9157 8.28466 11.8695 8.23846C11.8233 8.19227 11.7683 8.15585 11.7077 8.13138C11.6471 8.10691 11.5823 8.0949 11.5169 8.09605C11.4516 8.0972 11.3872 8.1115 11.3275 8.13809C11.2678 8.16468 11.2141 8.20301 11.1696 8.25081L8.91878 10.5016L7.96527 9.54811C7.92073 9.50031 7.86702 9.46197 7.80735 9.43538C7.74767 9.4088 7.68325 9.3945 7.61793 9.39335C7.55261 9.39219 7.48773 9.40421 7.42715 9.42868C7.36657 9.45314 7.31155 9.48956 7.26535 9.53576C7.21916 9.58195 7.18274 9.63698 7.15827 9.69756C7.1338 9.75813 7.12179 9.82302 7.12294 9.88834C7.12409 9.95366 7.13839 10.0181 7.16498 10.0778C7.19157 10.1374 7.2299 10.1911 7.2777 10.2357L8.91878 11.8768L11.8572 8.93838Z" fill="#F4F4F4"/>
</svg>
