<svg width="16" height="12" viewBox="0 0 16 12" fill="none" xmlns="http://www.w3.org/2000/svg">
<path fill-rule="evenodd" clip-rule="evenodd" d="M7.2 1.2C6.88483 1.2 6.57274 1.24656 6.28156 1.33702C5.99038 1.42748 5.7258 1.56006 5.50294 1.72721C5.28008 1.89435 5.1033 2.09278 4.98269 2.31117C4.86208 2.52956 4.8 2.76362 4.8 3C4.8 3.23638 4.86208 3.47044 4.98269 3.68883C5.1033 3.90722 5.28008 4.10565 5.50294 4.27279C5.7258 4.43994 5.99038 4.57253 6.28156 4.66298C6.57274 4.75344 6.88483 4.8 7.2 4.8C7.83652 4.8 8.44697 4.61036 8.89706 4.27279C9.34714 3.93523 9.6 3.47739 9.6 3C9.6 2.52261 9.34714 2.06477 8.89706 1.72721C8.44697 1.38964 7.83652 1.2 7.2 1.2ZM3.2 3C3.2 2.20435 3.62143 1.44129 4.37157 0.87868C5.12172 0.316071 6.13913 0 7.2 0C8.26087 0 9.27828 0.316071 10.0284 0.87868C10.7786 1.44129 11.2 2.20435 11.2 3C11.2 3.79565 10.7786 4.55871 10.0284 5.12132C9.27828 5.68393 8.26087 6 7.2 6C6.13913 6 5.12172 5.68393 4.37157 5.12132C3.62143 4.55871 3.2 3.79565 3.2 3ZM1.9304 9.3606C1.672 9.6066 1.6 9.7926 1.6 9.9C1.6 9.9732 1.6296 10.0506 1.804 10.1556C2.0032 10.2756 2.3496 10.3998 2.8792 10.5048C3.9336 10.7148 5.4488 10.8 7.2 10.8C7.3776 10.8 7.55307 10.799 7.7264 10.797C7.93857 10.7949 8.14319 10.856 8.29525 10.967C8.4473 11.078 8.53434 11.2298 8.5372 11.3889C8.54006 11.548 8.45853 11.7015 8.31052 11.8155C8.16252 11.9296 7.96017 11.9949 7.748 11.997C7.56667 11.999 7.384 12 7.2 12C5.4168 12 3.732 11.916 2.4696 11.6652C1.8416 11.5404 1.2504 11.3616 0.8024 11.0916C0.328 10.806 0 10.407 0 9.9C0 9.4278 0.2864 8.9862 0.6752 8.6166C1.0704 8.2416 1.6168 7.8966 2.2576 7.6026C3.54 7.017 5.284 6.6 7.2 6.6C7.55787 6.6 7.9088 6.614 8.2528 6.642C8.46381 6.65879 8.65728 6.73776 8.79065 6.86153C8.92403 6.9853 8.98638 7.14375 8.964 7.302C8.94162 7.46026 8.83633 7.60536 8.67129 7.70539C8.50626 7.80542 8.29501 7.85219 8.084 7.8354C7.79547 7.8118 7.5008 7.8 7.2 7.8C5.5816 7.8 4.1256 8.154 3.0912 8.6274C2.5736 8.8638 2.1824 9.1206 1.9304 9.3606ZM11.6688 7.9026C11.5187 7.7901 11.3151 7.72692 11.1029 7.72698C10.8907 7.72704 10.6872 7.79032 10.5372 7.9029C10.3872 8.01548 10.303 8.16815 10.303 8.32731C10.3031 8.48647 10.3875 8.6391 10.5376 8.7516L11.6688 9.6L10.5376 10.4484C10.4612 10.5037 10.4002 10.57 10.3583 10.6432C10.3164 10.7164 10.2943 10.7951 10.2934 10.8748C10.2925 10.9544 10.3127 11.0334 10.3529 11.1072C10.3932 11.1809 10.4526 11.2479 10.5277 11.3042C10.6028 11.3606 10.6921 11.4051 10.7904 11.4353C10.8888 11.4655 10.9941 11.4806 11.1003 11.48C11.2065 11.4793 11.3115 11.4627 11.4091 11.4313C11.5067 11.3998 11.595 11.3541 11.6688 11.2968L12.8 10.4484L13.9312 11.2968C14.005 11.3541 14.0933 11.3998 14.1909 11.4313C14.2885 11.4627 14.3935 11.4793 14.4997 11.48C14.6059 11.4806 14.7112 11.4655 14.8096 11.4353C14.9079 11.4051 14.9972 11.3606 15.0723 11.3042C15.1474 11.2479 15.2068 11.1809 15.2471 11.1072C15.2873 11.0334 15.3075 10.9544 15.3066 10.8748C15.3057 10.7951 15.2836 10.7164 15.2417 10.6432C15.1998 10.57 15.1388 10.5037 15.0624 10.4484L13.9312 9.6L15.0624 8.7516C15.2081 8.63844 15.2888 8.48688 15.2869 8.32956C15.2851 8.17224 15.201 8.02175 15.0527 7.91051C14.9043 7.79926 14.7037 7.73616 14.4939 7.7348C14.2842 7.73343 14.0821 7.79391 13.9312 7.9032L12.8 8.7516L11.6688 7.9026Z" fill="#F4F4F4"/>
</svg>
