<svg width="18" height="15" viewBox="0 0 18 15" fill="none" xmlns="http://www.w3.org/2000/svg">
<path d="M12.9779 13.9583C12.9779 12.4856 11.0027 11.2917 8.56618 11.2917C6.12963 11.2917 4.15441 12.4856 4.15441 13.9583M16.5074 11.292C16.5074 10.1985 15.4184 9.25872 13.8603 8.84722M0.625 11.292C0.625 10.1985 1.71391 9.25872 3.27206 8.84722M13.8603 5.27932C14.4018 4.79103 14.7426 4.08144 14.7426 3.29167C14.7426 1.81891 13.5575 0.625 12.0956 0.625C11.4176 0.625 10.7992 0.881759 10.3309 1.30402M3.27206 5.27932C2.73052 4.79103 2.38971 4.08144 2.38971 3.29167C2.38971 1.81891 3.57483 0.625 5.03676 0.625C5.71472 0.625 6.33316 0.881759 6.80147 1.30402M8.56618 8.625C7.10425 8.625 5.91912 7.43109 5.91912 5.95833C5.91912 4.48557 7.10425 3.29167 8.56618 3.29167C10.0281 3.29167 11.2132 4.48557 11.2132 5.95833C11.2132 7.43109 10.0281 8.625 8.56618 8.625Z" stroke="white" stroke-width="1.25" stroke-linecap="round" stroke-linejoin="round"/>
</svg>
