<svg width="12" height="12" viewBox="0 0 12 12" fill="none" xmlns="http://www.w3.org/2000/svg">
<path fill-rule="evenodd" clip-rule="evenodd" d="M4.76917 0C3.47931 0 2.41284 1.07676 2.41284 2.43243C2.41284 3.78811 3.47931 4.86487 4.76917 4.86487C6.05904 4.86487 7.12551 3.78811 7.12551 2.43243C7.12551 1.07676 6.05904 0 4.76917 0ZM3.33593 2.43243C3.33593 1.63849 3.96609 0.972973 4.76917 0.972973C5.57226 0.972973 6.20242 1.63849 6.20242 2.43243C6.20242 3.22638 5.57226 3.89189 4.76917 3.89189C3.96609 3.89189 3.33593 3.22638 3.33593 2.43243Z" fill="#F4F4F4"/>
<path d="M2.97652 6.23348C3.0159 6.22181 3.10083 6.22635 3.21283 6.30224C3.52791 6.51759 4.07438 6.8017 4.76915 6.8017C5.46393 6.8017 6.0104 6.51759 6.32609 6.30224C6.43686 6.22635 6.5224 6.22181 6.56179 6.23284C6.64999 6.25878 6.73779 6.28646 6.82517 6.31586L7.43134 6.52019C7.5467 6.55517 7.67046 6.54141 7.77635 6.48181C7.88225 6.42221 7.96195 6.32146 7.99854 6.20095C8.03513 6.08044 8.02573 5.94964 7.97234 5.83631C7.91895 5.72298 7.82577 5.63603 7.71257 5.59392L7.10702 5.38894C7.00733 5.35565 6.90723 5.3243 6.80671 5.29489C6.43009 5.18592 6.07255 5.3163 5.82455 5.48559C5.59685 5.64127 5.22516 5.82873 4.76915 5.82873C4.31376 5.82873 3.94145 5.64062 3.71376 5.48494C3.46575 5.3163 3.10821 5.18592 2.73159 5.29489C2.63108 5.3243 2.53097 5.35565 2.43128 5.38894L1.82574 5.59392C1.48175 5.70734 1.16757 5.90369 0.908104 6.16738C0.648641 6.43107 0.451033 6.75485 0.330951 7.11305C0.284796 7.25575 0.265104 7.39327 0.254027 7.50484L0.0146393 9.88732C-0.0838233 10.6508 0.318027 11.4363 1.11065 11.6302C1.84851 11.8106 3.03498 12 4.76915 12C4.89156 12 5.00896 11.9487 5.09551 11.8575C5.18207 11.7663 5.2307 11.6425 5.2307 11.5135C5.2307 11.3845 5.18207 11.2607 5.09551 11.1695C5.00896 11.0783 4.89156 11.027 4.76915 11.027C3.09898 11.027 1.98266 10.8454 1.31988 10.6832C1.05711 10.6184 0.884187 10.3569 0.929726 10.0151L0.930957 10.0067L1.17157 7.60667C1.18019 7.52624 1.19004 7.47176 1.20358 7.43089C1.27671 7.21557 1.39643 7.02116 1.55324 6.86309C1.71004 6.70501 1.89963 6.58761 2.10697 6.52019L2.71313 6.31586C2.80052 6.28646 2.88831 6.25943 2.97652 6.23348ZM9.69228 7.13511C9.81469 7.13511 9.93209 7.18636 10.0186 7.2776C10.1052 7.36883 10.1538 7.49257 10.1538 7.62159V9.08105H11.5385C11.6609 9.08105 11.7783 9.13231 11.8648 9.22354C11.9514 9.31477 12 9.43851 12 9.56754C12 9.69656 11.9514 9.8203 11.8648 9.91154C11.7783 10.0028 11.6609 10.054 11.5385 10.054H10.1538V11.5135C10.1538 11.6425 10.1052 11.7663 10.0186 11.8575C9.93209 11.9487 9.81469 12 9.69228 12C9.56987 12 9.45248 11.9487 9.36592 11.8575C9.27937 11.7663 9.23074 11.6425 9.23074 11.5135V10.054H7.84611C7.7237 10.054 7.6063 10.0028 7.51975 9.91154C7.43319 9.8203 7.38457 9.69656 7.38457 9.56754C7.38457 9.43851 7.43319 9.31477 7.51975 9.22354C7.6063 9.13231 7.7237 9.08105 7.84611 9.08105H9.23074V7.62159C9.23074 7.49257 9.27937 7.36883 9.36592 7.2776C9.45248 7.18636 9.56987 7.13511 9.69228 7.13511Z" fill="#F4F4F4"/>
</svg>
