<svg width="16" height="16" viewBox="0 0 16 16" fill="none" xmlns="http://www.w3.org/2000/svg">
<path fill-rule="evenodd" clip-rule="evenodd" d="M7.2 1.6C6.88483 1.6 6.57274 1.66208 6.28156 1.78269C5.99038 1.9033 5.7258 2.08008 5.50294 2.30294C5.28008 2.5258 5.1033 2.79038 4.98269 3.08156C4.86208 3.37274 4.8 3.68483 4.8 4C4.8 4.31517 4.86208 4.62726 4.98269 4.91844C5.1033 5.20962 5.28008 5.4742 5.50294 5.69706C5.7258 5.91992 5.99038 6.0967 6.28156 6.21731C6.57274 6.33792 6.88483 6.4 7.2 6.4C7.83652 6.4 8.44697 6.14714 8.89706 5.69706C9.34714 5.24697 9.6 4.63652 9.6 4C9.6 3.36348 9.34714 2.75303 8.89706 2.30294C8.44697 1.85286 7.83652 1.6 7.2 1.6ZM3.2 4C3.2 2.93913 3.62143 1.92172 4.37157 1.17157C5.12172 0.421427 6.13913 0 7.2 0C8.26087 0 9.27828 0.421427 10.0284 1.17157C10.7786 1.92172 11.2 2.93913 11.2 4C11.2 5.06087 10.7786 6.07828 10.0284 6.82843C9.27828 7.57857 8.26087 8 7.2 8C6.13913 8 5.12172 7.57857 4.37157 6.82843C3.62143 6.07828 3.2 5.06087 3.2 4ZM1.9304 12.4808C1.672 12.8088 1.6 13.0568 1.6 13.2C1.6 13.2976 1.6296 13.4008 1.804 13.5408C2.0032 13.7008 2.3496 13.8664 2.8792 14.0064C3.9336 14.2864 5.4488 14.4 7.2 14.4C7.3776 14.4 7.55307 14.3987 7.7264 14.396C7.93857 14.3931 8.14319 14.4747 8.29525 14.6227C8.4473 14.7707 8.53434 14.973 8.5372 15.1852C8.54006 15.3974 8.45853 15.602 8.31052 15.754C8.16252 15.9061 7.96017 15.9931 7.748 15.996C7.56667 15.9987 7.384 16 7.2 16C5.4168 16 3.732 15.888 2.4696 15.5536C1.8416 15.3872 1.2504 15.1488 0.8024 14.7888C0.328 14.408 0 13.876 0 13.2C0 12.5704 0.2864 11.9816 0.6752 11.4888C1.0704 10.9888 1.6168 10.5288 2.2576 10.1368C3.54 9.356 5.284 8.8 7.2 8.8C7.55787 8.8 7.9088 8.81867 8.2528 8.856C8.46381 8.87838 8.65728 8.98367 8.79065 9.14871C8.92403 9.31374 8.98638 9.52499 8.964 9.736C8.94162 9.94701 8.83633 10.1405 8.67129 10.2739C8.50626 10.4072 8.29501 10.4696 8.084 10.4472C7.79547 10.4157 7.5008 10.4 7.2 10.4C5.5816 10.4 4.1256 10.872 3.0912 11.5032C2.5736 11.8184 2.1824 12.1608 1.9304 12.4808ZM11.6688 10.5368C11.5187 10.3868 11.3151 10.3026 11.1029 10.3026C10.8907 10.3027 10.6872 10.3871 10.5372 10.5372C10.3872 10.6873 10.303 10.8909 10.303 11.1031C10.3031 11.3153 10.3875 11.5188 10.5376 11.6688L11.6688 12.8L10.5376 13.9312C10.4612 14.005 10.4002 14.0933 10.3583 14.1909C10.3164 14.2885 10.2943 14.3935 10.2934 14.4997C10.2925 14.6059 10.3127 14.7112 10.3529 14.8096C10.3932 14.9079 10.4526 14.9972 10.5277 15.0723C10.6028 15.1474 10.6921 15.2068 10.7904 15.2471C10.8888 15.2873 10.9941 15.3075 11.1003 15.3066C11.2065 15.3057 11.3115 15.2836 11.4091 15.2417C11.5067 15.1998 11.595 15.1388 11.6688 15.0624L12.8 13.9312L13.9312 15.0624C14.005 15.1388 14.0933 15.1998 14.1909 15.2417C14.2885 15.2836 14.3935 15.3057 14.4997 15.3066C14.6059 15.3075 14.7112 15.2873 14.8096 15.2471C14.9079 15.2068 14.9972 15.1474 15.0723 15.0723C15.1474 14.9972 15.2068 14.9079 15.2471 14.8096C15.2873 14.7112 15.3075 14.6059 15.3066 14.4997C15.3057 14.3935 15.2836 14.2885 15.2417 14.1909C15.1998 14.0933 15.1388 14.005 15.0624 13.9312L13.9312 12.8L15.0624 11.6688C15.2081 11.5179 15.2888 11.3158 15.2869 11.1061C15.2851 10.8963 15.201 10.6957 15.0527 10.5473C14.9043 10.399 14.7037 10.3149 14.4939 10.3131C14.2842 10.3112 14.0821 10.3919 13.9312 10.5376L12.8 11.6688L11.6688 10.5368Z" fill="white"/>
</svg>
