<svg width="16" height="14" viewBox="0 0 16 14" fill="none" xmlns="http://www.w3.org/2000/svg">
<path fill-rule="evenodd" clip-rule="evenodd" d="M3.99997 11.2V2.8C3.99997 2.4287 4.18058 2.0726 4.50208 1.81005C4.82357 1.5475 5.25961 1.4 5.71427 1.4H10.2857C10.7404 1.4 11.1764 1.5475 11.4979 1.81005C11.8194 2.0726 12 2.4287 12 2.8V11.2C12 11.5713 11.8194 11.9274 11.4979 12.1899C11.1764 12.4525 10.7404 12.6 10.2857 12.6H5.71427C5.25961 12.6 4.82357 12.4525 4.50208 12.1899C4.18058 11.9274 3.99997 11.5713 3.99997 11.2ZM15.8561 3.88827L13.7143 6.51187V7.23333H15.1429C15.298 7.23334 15.4503 7.26774 15.5834 7.33285C15.7164 7.39795 15.8254 7.49134 15.8986 7.60304C15.9718 7.71475 16.0065 7.84058 15.999 7.96712C15.9915 8.09367 15.9421 8.21618 15.8561 8.3216L13.7143 10.9452V11.2C13.7143 11.9426 13.3531 12.6548 12.7101 13.1799C12.0671 13.705 11.1951 14 10.2857 14H5.71427C4.80495 14 3.93287 13.705 3.28988 13.1799C2.6469 12.6548 2.28567 11.9426 2.28567 11.2V10.9452L0.143939 8.3216C0.0578907 8.21618 0.00848813 8.09367 0.000999426 7.96712C-0.00648928 7.84058 0.0282165 7.71475 0.101416 7.60304C0.174616 7.49134 0.283565 7.39795 0.416646 7.33285C0.549728 7.26774 0.701952 7.23334 0.857087 7.23333H2.28567V6.51187L0.143939 3.88827C0.0578907 3.78285 0.00848813 3.66034 0.000999426 3.53379C-0.00648928 3.40724 0.0282165 3.28141 0.101416 3.16971C0.174616 3.05801 0.283565 2.96462 0.416646 2.89951C0.549728 2.8344 0.701952 2.80001 0.857087 2.8H2.28567C2.28567 2.05739 2.6469 1.3452 3.28988 0.820101C3.93287 0.294999 4.80495 0 5.71427 0H10.2857C11.1951 0 12.0671 0.294999 12.7101 0.820101C13.3531 1.3452 13.7143 2.05739 13.7143 2.8H15.1429C15.298 2.80001 15.4503 2.8344 15.5834 2.89951C15.7164 2.96462 15.8254 3.05801 15.8986 3.16971C15.9718 3.28141 16.0065 3.40724 15.999 3.53379C15.9915 3.66034 15.9421 3.78285 15.8561 3.88827ZM8 6.3C8.26265 6.3 8.52272 6.25775 8.76537 6.17567C9.00803 6.09359 9.22851 5.97328 9.41422 5.82161C9.59994 5.66994 9.74726 5.48988 9.84777 5.29172C9.94828 5.09355 10 4.88116 10 4.66667C10 4.45217 9.94828 4.23978 9.84777 4.04162C9.74726 3.84345 9.59994 3.66339 9.41422 3.51173C9.22851 3.36006 9.00803 3.23975 8.76537 3.15766C8.52272 3.07558 8.26265 3.03333 8 3.03333C7.46956 3.03333 6.96085 3.20542 6.58578 3.51173C6.2107 3.81804 5.99998 4.23348 5.99998 4.66667C5.99998 5.09985 6.2107 5.5153 6.58578 5.82161C6.96085 6.12792 7.46956 6.3 8 6.3ZM8 10.9667C8.53044 10.9667 9.03915 10.7946 9.41422 10.4883C9.7893 10.182 10 9.76652 10 9.33333C10 8.90015 9.7893 8.4847 9.41422 8.17839C9.03915 7.87208 8.53044 7.7 8 7.7C7.46956 7.7 6.96085 7.87208 6.58578 8.17839C6.2107 8.4847 5.99998 8.90015 5.99998 9.33333C5.99998 9.76652 6.2107 10.182 6.58578 10.4883C6.96085 10.7946 7.46956 10.9667 8 10.9667Z" fill="#F4F4F4"/>
</svg>
