<svg width="26" height="27" viewBox="0 0 26 27" fill="none" xmlns="http://www.w3.org/2000/svg">
<path d="M0.408203 26.1837L6.25163 8.8596L16.7698 19.9965L0.408203 26.1837ZM4.26487 22.1001L12.5041 19.0065L7.18658 13.3762L4.26487 22.1001ZM15.0752 14.4899L13.8481 13.1906L20.3927 6.26099C21.016 5.60102 21.7659 5.27104 22.6425 5.27104C23.519 5.27104 24.2689 5.60102 24.8922 6.26099L25.5934 7.00345L24.3663 8.30275L23.6651 7.56029C23.3924 7.27156 23.0515 7.12719 22.6425 7.12719C22.2334 7.12719 21.8925 7.27156 21.6199 7.56029L15.0752 14.4899ZM10.4005 9.54018L9.17335 8.24088L9.87456 7.49842C10.1473 7.20969 10.2836 6.85908 10.2836 6.4466C10.2836 6.03412 10.1473 5.68352 9.87456 5.39478L9.11491 4.59045L10.342 3.29115L11.1017 4.09548C11.725 4.75544 12.0366 5.53915 12.0366 6.4466C12.0366 7.35405 11.725 8.13776 11.1017 8.79772L10.4005 9.54018ZM12.7378 12.015L11.5107 10.7157L15.718 6.26099C15.9907 5.97225 16.127 5.61134 16.127 5.17823C16.127 4.74513 15.9907 4.38421 15.718 4.09548L13.8481 2.11559L15.0752 0.816284L16.9451 2.79618C17.5684 3.45614 17.8801 4.25016 17.8801 5.17823C17.8801 6.10631 17.5684 6.90033 16.9451 7.56029L12.7378 12.015ZM17.4126 16.9648L16.1855 15.6655L18.0554 13.6856C18.6787 13.0256 19.4286 12.6956 20.3051 12.6956C21.1816 12.6956 21.9315 13.0256 22.5548 13.6856L24.4247 15.6655L23.1976 16.9648L21.3277 14.9849C21.055 14.6962 20.7141 14.5518 20.3051 14.5518C19.896 14.5518 19.5552 14.6962 19.2825 14.9849L17.4126 16.9648Z" fill="#F4F4F4"/>
</svg>
