<svg width="20" height="20" viewBox="0 0 20 20" fill="none" xmlns="http://www.w3.org/2000/svg">
<g id="Group">
<path id="Vector" d="M10 19C11.1821 19.0015 12.3529 18.7693 13.445 18.3169C14.5371 17.8645 15.5291 17.2008 16.3639 16.3639C17.2008 15.5291 17.8645 14.5371 18.3169 13.445C18.7693 12.3529 19.0015 11.1821 19 10C19.0015 8.81789 18.7693 7.64714 18.3169 6.55502C17.8645 5.4629 17.2008 4.47093 16.3639 3.6361C15.5291 2.79918 14.5371 2.13545 13.445 1.68307C12.3529 1.23068 11.1821 0.998549 10 1.00001C8.81789 0.998549 7.64714 1.23068 6.55502 1.68307C5.4629 2.13545 4.47093 2.79918 3.6361 3.6361C2.79918 4.47093 2.13545 5.4629 1.68307 6.55502C1.23068 7.64714 0.998549 8.81789 1.00001 10C0.998549 11.1821 1.23068 12.3529 1.68307 13.445C2.13545 14.5371 2.79918 15.5291 3.6361 16.3639C4.47093 17.2008 5.4629 17.8645 6.55502 18.3169C7.64714 18.7693 8.81789 19.0015 10 19Z" stroke="#B8FE22" stroke-width="1.5" stroke-linejoin="round"/>
<path id="Vector_2" d="M6.40039 9.9998L9.10039 12.6998L14.5004 7.2998" stroke="#B8FE22" stroke-width="1.5" stroke-linecap="round" stroke-linejoin="round"/>
</g>
</svg>
