<svg width="41" height="41" viewBox="0 0 41 41" fill="none" xmlns="http://www.w3.org/2000/svg">
<rect width="41" height="41" rx="20.5" fill="#56B33D"/>
<path d="M7.90723 33.1838L13.7507 15.8597L24.2688 26.9966L7.90723 33.1838ZM11.7639 29.1002L20.0031 26.0067L14.6856 20.3763L11.7639 29.1002ZM22.5742 21.49L21.3471 20.1907L27.8918 13.2611C28.5151 12.6011 29.265 12.2712 30.1415 12.2712C31.018 12.2712 31.7679 12.6011 32.3912 13.2611L33.0924 14.0036L31.8653 15.3029L31.1641 14.5604C30.8914 14.2717 30.5505 14.1273 30.1415 14.1273C29.7324 14.1273 29.3916 14.2717 29.1189 14.5604L22.5742 21.49ZM17.8995 16.5403L16.6724 15.241L17.3736 14.4985C17.6463 14.2098 17.7826 13.8592 17.7826 13.4467C17.7826 13.0342 17.6463 12.6836 17.3736 12.3949L16.6139 11.5906L17.8411 10.2913L18.6007 11.0956C19.224 11.7556 19.5357 12.5393 19.5357 13.4467C19.5357 14.3542 19.224 15.1379 18.6007 15.7978L17.8995 16.5403ZM20.2369 19.0152L19.0097 17.7159L23.217 13.2611C23.4897 12.9724 23.6261 12.6115 23.6261 12.1784C23.6261 11.7453 23.4897 11.3843 23.217 11.0956L21.3471 9.11571L22.5742 7.81641L24.4441 9.7963C25.0674 10.4563 25.3791 11.2503 25.3791 12.1784C25.3791 13.1064 25.0674 13.9004 24.4441 14.5604L20.2369 19.0152ZM24.9116 23.9649L23.6845 22.6656L25.5544 20.6857C26.1777 20.0257 26.9276 19.6958 27.8041 19.6958C28.6806 19.6958 29.4305 20.0257 30.0538 20.6857L31.9237 22.6656L30.6966 23.9649L28.8267 21.985C28.554 21.6963 28.2131 21.5519 27.8041 21.5519C27.3951 21.5519 27.0542 21.6963 26.7815 21.985L24.9116 23.9649Z" fill="#F4F4F4"/>
</svg>
