<svg width="200" height="180" viewBox="0 0 200 180" fill="none" xmlns="http://www.w3.org/2000/svg">
<path d="M11.8268 74.3162L13.2478 73.8864V72.4018V43.6645C13.2478 36.4742 17.9157 31.3848 22.8469 31.3848C27.7778 31.3848 32.4465 36.4748 32.4465 43.6645V136.331C32.4465 143.522 27.778 148.611 22.8469 148.611C17.9155 148.611 13.2478 143.523 13.2478 136.331V107.598V106.113L11.8268 105.683C6.41272 104.046 2 97.8736 2 89.9987C2 82.1266 6.413 75.9536 11.8268 74.3162ZM120.562 70.7975H122.562V68.7975V21.2017C122.562 10.1879 129.746 2 137.785 2C145.825 2 153.008 10.1885 153.008 21.2011V158.798C153.008 169.812 145.825 178 137.785 178C129.746 178 122.562 169.812 122.562 158.798V111.202V109.202H120.562H82.2497C81.7199 109.202 80.9756 109.231 80.3927 109.258C80.0951 109.272 79.8284 109.285 79.6361 109.296C79.5954 109.298 79.558 109.3 79.5243 109.302C79.4783 109.304 79.4392 109.306 79.408 109.308L79.3453 109.311L79.3286 109.312L79.3242 109.313L79.3229 109.313L79.3225 109.313L79.3223 109.313L77.4376 109.422V111.309V158.798C77.4376 169.812 70.254 178 62.2141 178C54.1754 178 46.9911 169.812 46.9911 158.798V21.2017C46.9911 10.1881 54.1754 2 62.2141 2C70.2536 2 77.4376 10.1885 77.4376 21.2017V68.7149V70.657L79.3788 70.714L82.191 70.7967L82.2203 70.7975H82.2497H120.562ZM186.752 72.4018V73.8864L188.173 74.3162C193.587 75.9536 198 82.1261 198 89.9987C198 97.8735 193.587 104.046 188.173 105.683L186.752 106.113V107.598V136.331C186.752 143.523 182.084 148.611 177.153 148.611C172.222 148.611 167.554 143.522 167.554 136.331V43.6645C167.554 36.4743 172.222 31.3848 177.153 31.3848C182.083 31.3848 186.752 36.4747 186.752 43.6645V72.4018Z" fill="#B8FE22" stroke="#B8FE22" stroke-width="4"/>
</svg>
