<svg width="120" height="120" viewBox="0 0 200 200" fill="none" xmlns="http://www.w3.org/2000/svg">
  <path d="M11.8268 84.3162L13.2478 83.8864V82.4018V53.6645C13.2478 46.4742 17.9157 41.3848 22.8469 41.3848C27.7778 41.3848 32.4465 46.4748 32.4465 53.6645V146.331C32.4465 153.522 27.778 158.611 22.8469 158.611C17.9155 158.611 13.2478 153.523 13.2478 146.331V117.598V116.113L11.8268 115.683C6.41272 114.046 2 107.874 2 99.9987C2 92.1266 6.413 85.9536 11.8268 84.3162ZM120.562 80.7975H122.562V78.7975V31.2017C122.562 20.1879 129.746 12 137.785 12C145.825 12 153.008 20.1885 153.008 31.2011V168.798C153.008 179.812 145.825 188 137.785 188C129.746 188 122.562 179.812 122.562 168.798V121.202V119.202H120.562H82.2497C81.7199 119.202 80.9756 119.231 80.3927 119.258C80.0951 119.272 79.8284 119.285 79.6361 119.296C79.5954 119.298 79.558 119.3 79.5243 119.302C79.4783 119.304 79.4392 119.306 79.408 119.308L79.3453 119.311L79.3286 119.312L79.3242 119.313L79.3229 119.313L79.3225 119.313L79.3223 119.313L77.4376 119.422V121.309V168.798C77.4376 179.812 70.254 188 62.2141 188C54.1754 188 46.9911 179.812 46.9911 168.798V31.2017C46.9911 20.1881 54.1754 12 62.2141 12C70.2536 12 77.4376 20.1885 77.4376 31.2017V78.7149V80.657L79.3788 80.714L82.191 80.7967L82.2203 80.7975H82.2497H120.562ZM186.752 82.4018V83.8864L188.173 84.3162C193.587 85.9536 198 92.1261 198 99.9987C198 107.873 193.587 114.046 188.173 115.683L186.752 116.113V117.598V146.331C186.752 153.523 182.084 158.611 177.153 158.611C172.222 158.611 167.554 153.522 167.554 146.331V53.6645C167.554 46.4743 172.222 41.3848 177.153 41.3848C182.083 41.3848 186.752 46.4747 186.752 53.6645V82.4018Z" fill="#B8FE22" stroke="#B8FE22" stroke-width="4"/>
</svg>
