<svg width="40" height="30" viewBox="0 0 40 30" fill="none" xmlns="http://www.w3.org/2000/svg">
<path id="Vectorx" d="M36.2504 13.2358V12.067V7.27742C36.2504 6.75524 35.847 6.39747 35.4306 6.39747C35.0139 6.39747 34.6107 6.75526 34.6107 7.27742V22.7219C34.6107 23.2441 35.0138 23.6018 35.4306 23.6018C35.8472 23.6018 36.2504 23.2442 36.2504 22.7219V17.9329V16.7641L37.3838 16.4784C38.0073 16.3213 38.5 15.7356 38.5 14.9999L36.2504 13.2358ZM36.2504 13.2358L37.3838 13.5215M36.2504 13.2358L37.3838 13.5215M37.3838 13.5215C38.0073 13.6786 38.4999 14.2643 38.5 14.9998L37.3838 13.5215ZM2.61617 13.5215L3.74956 13.2358L3.74956 12.067L3.74956 7.27742C3.74956 6.75519 4.15278 6.39747 4.56938 6.39747C4.98598 6.39747 5.38929 6.75535 5.38929 7.27742L5.38929 22.7219C5.38929 23.2441 4.98615 23.6018 4.56938 23.6018C4.15264 23.6018 3.74956 23.2442 3.74956 22.7219L3.74956 17.9329V16.7641L2.61615 16.4784C1.99267 16.3213 1.5 15.7357 1.5 14.9998C1.5 14.2645 1.99264 13.6786 2.61617 13.5215ZM24.1125 12.9663H25.6125V11.4663V3.53362C25.6125 2.37408 26.5189 1.5 27.557 1.5C28.5953 1.5 29.5017 2.37421 29.5016 3.53347V3.53353L29.5016 26.4664C29.5016 27.6259 28.5953 28.5 27.557 28.5C26.5189 28.5 25.6125 27.6259 25.6125 26.4664V18.5337V17.0337H24.1125H16.4499C16.3224 17.0337 16.156 17.0393 16.0396 17.0438C15.9775 17.0461 15.9221 17.0485 15.8821 17.0503L15.8343 17.0524L15.8209 17.053L15.8171 17.0532L15.816 17.0533L15.8157 17.0533L15.8156 17.0533L15.8155 17.0533L15.8875 18.5516L15.8155 17.0533L14.3875 17.122V18.5516L14.3875 26.4664C14.3875 27.6259 13.4811 28.5 12.4428 28.5C11.4047 28.5 10.4982 27.6259 10.4982 26.4664L10.4982 3.53362C10.4982 2.37415 11.4047 1.5 12.4428 1.5C13.4811 1.5 14.3875 2.37421 14.3875 3.53362L14.3875 11.4525V12.9162L15.8508 12.952L16.4132 12.9658L16.4316 12.9663H16.4499L24.1125 12.9663Z" fill="#B8FE22" stroke="#B8FE22" stroke-width="3"/>
</svg>
