<svg width="16" height="13" viewBox="0 0 16 13" fill="none" xmlns="http://www.w3.org/2000/svg">
<path id="Vector" d="M2.34375 12.5156H13.6562C13.8438 12.5156 14 12.3594 14 12.1719V11.3281H2V12.1719C2 12.3906 2.15625 12.5156 2.34375 12.5156ZM14.5625 2.51562C14.0312 2.51562 13.625 2.92188 13.625 3.45312C13.625 3.70312 13.7188 3.95312 13.9062 4.10937L11.0938 6.98438L8.4375 2.23438C8.71875 2.07813 8.90625 1.76562 8.90625 1.42188C8.90625 0.890625 8.5 0.484375 7.96875 0.484375C7.4375 0.484375 7.03125 0.890625 7.03125 1.42188C7.03125 1.76562 7.21875 2.07813 7.5 2.23438L4.84375 6.98438L2.03125 4.10937C2.28125 3.95312 2.375 3.70312 2.375 3.45312C2.375 2.92188 1.96875 2.51562 1.4375 2.51562C0.90625 2.51562 0.5 2.92188 0.5 3.45312C0.5 3.98438 0.90625 4.39063 1.4375 4.39063C1.46875 4.39063 1.5 4.39063 1.5 4.39063L2 10.7656H14L14.5 4.39063C14.5312 4.39063 14.5625 4.39063 14.5625 4.39063C15.0938 4.39063 15.5 3.98438 15.5 3.45312C15.5 2.95312 15.0938 2.51562 14.5625 2.51562Z" fill="#B8FE22"/>
</svg>
