<svg width="16" height="17" viewBox="0 0 16 17" fill="none" xmlns="http://www.w3.org/2000/svg">
<path id="Vector" fill-rule="evenodd" clip-rule="evenodd" d="M3.99997 13.3V3.7C3.99997 3.27565 4.18058 2.86869 4.50208 2.56863C4.82357 2.26857 5.25961 2.1 5.71427 2.1H10.2857C10.7404 2.1 11.1764 2.26857 11.4979 2.56863C11.8194 2.86869 12 3.27565 12 3.7V13.3C12 13.7243 11.8194 14.1313 11.4979 14.4314C11.1764 14.7314 10.7404 14.9 10.2857 14.9H5.71427C5.25961 14.9 4.82357 14.7314 4.50208 14.4314C4.18058 14.1313 3.99997 13.7243 3.99997 13.3ZM15.8561 4.94373L13.7143 7.94213V8.76667H15.1429C15.298 8.76668 15.4503 8.80598 15.5834 8.88039C15.7164 8.95481 15.8254 9.06153 15.8986 9.18919C15.9718 9.31685 16.0065 9.46066 15.999 9.60528C15.9915 9.74991 15.9421 9.88992 15.8561 10.0104L13.7143 13.0088V13.3C13.7143 14.1487 13.3531 14.9626 12.7101 15.5627C12.0671 16.1629 11.1951 16.5 10.2857 16.5H5.71427C4.80495 16.5 3.93287 16.1629 3.28988 15.5627C2.6469 14.9626 2.28567 14.1487 2.28567 13.3V13.0088L0.143939 10.0104C0.0578907 9.88992 0.00848813 9.74991 0.000999426 9.60528C-0.00648928 9.46066 0.0282165 9.31685 0.101416 9.18919C0.174616 9.06153 0.283565 8.95481 0.416646 8.88039C0.549728 8.80598 0.701952 8.76668 0.857087 8.76667H2.28567V7.94213L0.143939 4.94373C0.0578907 4.82326 0.00848813 4.68324 0.000999426 4.53862C-0.00648928 4.39399 0.0282165 4.25019 0.101416 4.12253C0.174616 3.99486 0.283565 3.88814 0.416646 3.81373C0.549728 3.73932 0.701952 3.70001 0.857087 3.7H2.28567C2.28567 2.85131 2.6469 2.03737 3.28988 1.43726C3.93287 0.837142 4.80495 0.5 5.71427 0.5H10.2857C11.1951 0.5 12.0671 0.837142 12.7101 1.43726C13.3531 2.03737 13.7143 2.85131 13.7143 3.7H15.1429C15.298 3.70001 15.4503 3.73932 15.5834 3.81373C15.7164 3.88814 15.8254 3.99486 15.8986 4.12253C15.9718 4.25019 16.0065 4.39399 15.999 4.53862C15.9915 4.68324 15.9421 4.82326 15.8561 4.94373ZM8 7.7C8.26265 7.7 8.52272 7.65172 8.76537 7.55791C9.00803 7.4641 9.22851 7.3266 9.41422 7.15327C9.59994 6.97993 9.74726 6.77415 9.84777 6.54768C9.94828 6.3212 10 6.07847 10 5.83333C10 5.5882 9.94828 5.34547 9.84777 5.11899C9.74726 4.89252 9.59994 4.68674 9.41422 4.5134C9.22851 4.34007 9.00803 4.20257 8.76537 4.10876C8.52272 4.01495 8.26265 3.96667 8 3.96667C7.46956 3.96667 6.96085 4.16333 6.58578 4.5134C6.2107 4.86347 5.99998 5.33826 5.99998 5.83333C5.99998 6.3284 6.2107 6.8032 6.58578 7.15327C6.96085 7.50333 7.46956 7.7 8 7.7ZM8 13.0333C8.53044 13.0333 9.03915 12.8367 9.41422 12.4866C9.7893 12.1365 10 11.6617 10 11.1667C10 10.6716 9.7893 10.1968 9.41422 9.84673C9.03915 9.49667 8.53044 9.3 8 9.3C7.46956 9.3 6.96085 9.49667 6.58578 9.84673C6.2107 10.1968 5.99998 10.6716 5.99998 11.1667C5.99998 11.6617 6.2107 12.1365 6.58578 12.4866C6.96085 12.8367 7.46956 13.0333 8 13.0333Z" fill="#B8FE22"/>
</svg>
