<svg width="18" height="19" viewBox="0 0 18 19" fill="none" xmlns="http://www.w3.org/2000/svg">
<path id="Vector" d="M1 4.5V3.5C1 2.96957 1.21071 2.46086 1.58579 2.08579C1.96086 1.71071 2.46957 1.5 3 1.5H5M1 14.5V15.5C1 16.0304 1.21071 16.5391 1.58579 16.9142C1.96086 17.2893 2.46957 17.5 3 17.5H5M13 1.5H15C15.5304 1.5 16.0391 1.71071 16.4142 2.08579C16.7893 2.46086 17 2.96957 17 3.5V4.5M13 17.5H15C15.5304 17.5 16.0391 17.2893 16.4142 16.9142C16.7893 16.5391 17 16.0304 17 15.5V14.5M2 9.5H16" stroke="#B8FE22" stroke-width="2" stroke-linecap="round" stroke-linejoin="round"/>
</svg>
