<svg width="16" height="17" viewBox="0 0 16 17" fill="none" xmlns="http://www.w3.org/2000/svg">
<path id="Vector" d="M2.4 7.76316L2.0605 7.85232C1.75762 7.93201 1.48874 8.11597 1.29659 8.37498C1.10444 8.63398 1.00005 8.95316 1 9.28179V10.6648C1.00005 10.9935 1.10444 11.3126 1.29659 11.5717C1.48874 11.8307 1.75762 12.0146 2.0605 12.0943L3.2785 12.4148C3.34039 12.4311 3.40498 12.4322 3.46737 12.4183C3.52975 12.4043 3.5883 12.3756 3.63856 12.3342C3.68882 12.2929 3.72948 12.2401 3.75746 12.1797C3.78543 12.1194 3.79998 12.0531 3.8 11.986V7.96063C3.8 7.89341 3.78545 7.82708 3.75743 7.76667C3.72942 7.70627 3.68869 7.65338 3.63835 7.61203C3.588 7.57069 3.52936 7.54197 3.46688 7.52806C3.4044 7.51416 3.33974 7.51543 3.2778 7.53179L2.4 7.76316ZM2.4 7.76316V7.39474C2.4 5.83136 2.99 4.33201 4.0402 3.22653C5.09041 2.12105 6.51479 1.5 8 1.5C9.48521 1.5 10.9096 2.12105 11.9598 3.22653C13.01 4.33201 13.6 5.83136 13.6 7.39474V7.76316M13.6 7.76316L13.9395 7.85232C14.2424 7.93201 14.5113 8.11597 14.7034 8.37498C14.8956 8.63398 15 8.95316 15 9.28179V10.6648C15 10.9935 14.8956 11.3126 14.7034 11.5717C14.5113 11.8307 14.2424 12.0146 13.9395 12.0943L13.6 12.1842M13.6 7.76316L12.7215 7.53179C12.6596 7.51556 12.595 7.51439 12.5326 7.52836C12.4702 7.54232 12.4117 7.57106 12.3614 7.61239C12.3112 7.65373 12.2705 7.70657 12.2425 7.7669C12.2146 7.82724 12.2 7.89349 12.2 7.96063V11.986C12.2 12.0531 12.2146 12.1194 12.2425 12.1797C12.2705 12.2401 12.3112 12.2929 12.3614 12.3342C12.4117 12.3756 12.4702 12.4043 12.5326 12.4183C12.595 12.4322 12.6596 12.4311 12.7215 12.4148L13.6 12.1842M13.6 12.1842V12.9211C13.6 13.3119 13.4525 13.6867 13.1899 13.9631C12.9274 14.2395 12.5713 14.3947 12.2 14.3947H10.1M10.1 14.3947C10.1 14.1016 9.98938 13.8205 9.79246 13.6132C9.59555 13.4059 9.32848 13.2895 9.05 13.2895H6.95C6.67152 13.2895 6.40445 13.4059 6.20754 13.6132C6.01062 13.8205 5.9 14.1016 5.9 14.3947C5.9 14.6879 6.01062 14.969 6.20754 15.1763C6.40445 15.3836 6.67152 15.5 6.95 15.5H9.05C9.32848 15.5 9.59555 15.3836 9.79246 15.1763C9.98938 14.969 10.1 14.6879 10.1 14.3947Z" stroke="#B8FE22" stroke-width="1.5"/>
</svg>
