<svg width="18" height="16" viewBox="0 0 18 16" fill="none" xmlns="http://www.w3.org/2000/svg">
<path id="Vector" d="M16.2354 5.60281C16.3946 5.60281 16.5502 5.5556 16.6826 5.46714C16.815 5.37869 16.9182 5.25298 16.9791 5.10589C17.04 4.9588 17.056 4.79695 17.0249 4.6408C16.9938 4.48465 16.9172 4.34122 16.8046 4.22865C16.692 4.11607 16.5486 4.0394 16.3924 4.00834C16.2363 3.97728 16.0744 3.99323 15.9274 4.05415C15.7803 4.11508 15.6546 4.21825 15.5661 4.35063C15.4777 4.483 15.4304 4.63864 15.4304 4.79784C15.4304 5.01133 15.5153 5.21608 15.6662 5.36704C15.8172 5.518 16.0219 5.60281 16.2354 5.60281ZM13.8205 5.60281C13.9797 5.60281 14.1354 5.5556 14.2677 5.46714C14.4001 5.37869 14.5033 5.25298 14.5642 5.10589C14.6251 4.9588 14.6411 4.79695 14.61 4.6408C14.579 4.48465 14.5023 4.34122 14.3897 4.22865C14.2771 4.11607 14.1337 4.0394 13.9776 4.00834C13.8214 3.97728 13.6596 3.99323 13.5125 4.05415C13.3654 4.11508 13.2397 4.21825 13.1512 4.35063C13.0628 4.483 13.0156 4.63864 13.0156 4.79784C13.0156 5.01133 13.1004 5.21608 13.2513 5.36704C13.4023 5.518 13.607 5.60281 13.8205 5.60281ZM11.4056 5.60281C11.5648 5.60281 11.7205 5.5556 11.8528 5.46714C11.9852 5.37869 12.0884 5.25298 12.1493 5.10589C12.2102 4.9588 12.2262 4.79695 12.1951 4.6408C12.1641 4.48465 12.0874 4.34122 11.9748 4.22865C11.8622 4.11607 11.7188 4.0394 11.5627 4.00834C11.4065 3.97728 11.2447 3.99323 11.0976 4.05415C10.9505 4.11508 10.8248 4.21825 10.7363 4.35063C10.6479 4.483 10.6007 4.63864 10.6007 4.79784C10.6007 5.01133 10.6855 5.21608 10.8364 5.36704C10.9874 5.518 11.1921 5.60281 11.4056 5.60281ZM14.9797 8.82266C14.8026 8.82266 14.6174 8.76632 14.4403 8.72607C14.0817 8.64715 13.7293 8.54223 13.3858 8.41213C13.0124 8.27628 12.6019 8.28333 12.2334 8.43194C11.8648 8.58055 11.5643 8.8602 11.3895 9.2171L11.2124 9.57933C10.4273 9.14112 9.70445 8.59966 9.06318 7.9694C8.43564 7.32877 7.89442 6.60895 7.45325 5.8282L7.80743 5.60281C8.16433 5.42806 8.44398 5.1275 8.59259 4.75896C8.7412 4.39041 8.74825 3.97993 8.6124 3.60649C8.48382 3.26257 8.37893 2.91024 8.29846 2.55199C8.25821 2.36685 8.22601 2.18976 8.20187 2.00462C8.10411 1.43762 7.80713 0.924147 7.3644 0.556678C6.92167 0.18921 6.36228 -0.00810908 5.78697 0.000255418H3.37208C3.03178 -0.000190346 2.69523 0.071292 2.38448 0.210016C2.07374 0.34874 1.79583 0.551574 1.56896 0.80522C1.33849 1.06482 1.1667 1.37105 1.06529 1.70305C0.963886 2.03505 0.935251 2.38501 0.981337 2.72908C1.40532 6.0995 2.93931 9.23286 5.34134 11.6349C7.74337 14.0369 10.8767 15.5709 14.2471 15.9949C14.3517 16.0017 14.4565 16.0017 14.5611 15.9949C15.2016 15.9949 15.8158 15.7405 16.2687 15.2876C16.7215 14.8347 16.976 14.2205 16.976 13.58V11.1651C16.9676 10.6034 16.7637 10.0622 16.3993 9.63467C16.035 9.20712 15.5329 8.91997 14.9797 8.82266ZM15.3741 13.6524C15.3754 13.7691 15.3514 13.8847 15.3036 13.9912C15.2558 14.0976 15.1854 14.1924 15.0974 14.269C15.0093 14.3456 14.9057 14.4021 14.7936 14.4346C14.6816 14.4671 14.5638 14.4749 14.4484 14.4574C11.4428 14.0652 8.65031 12.693 6.50339 10.5533C4.35816 8.39189 2.98831 5.58142 2.60736 2.56004C2.58988 2.44198 2.59886 2.32151 2.63367 2.20735C2.66847 2.09319 2.72823 1.98819 2.80861 1.89997C2.88314 1.81512 2.97469 1.7469 3.07732 1.69974C3.17995 1.65259 3.29135 1.62756 3.40428 1.62628H5.81917C6.00636 1.62212 6.18915 1.68334 6.33607 1.79941C6.483 1.91548 6.58486 2.07913 6.62414 2.2622C6.65633 2.48223 6.69658 2.69957 6.74488 2.91423C6.83753 3.33864 6.9613 3.75567 7.11516 4.16192L5.98821 4.68515C5.89186 4.72936 5.80518 4.79216 5.73317 4.86996C5.66115 4.94776 5.60521 5.03902 5.56856 5.1385C5.53191 5.23798 5.51527 5.34371 5.5196 5.44964C5.52393 5.55556 5.54914 5.65959 5.59378 5.75575C6.75286 8.23686 8.74742 10.2314 11.2285 11.3905C11.4245 11.471 11.6443 11.471 11.8403 11.3905C12.0401 11.3162 12.2022 11.1656 12.2911 10.9719L12.7982 9.84497C13.2145 9.99323 13.6392 10.1169 14.0701 10.2153C14.2793 10.2635 14.5047 10.3038 14.7221 10.336C14.9037 10.3769 15.0655 10.4794 15.1799 10.6262C15.2944 10.773 15.3545 10.9549 15.3499 11.141L15.3741 13.6524Z" fill="#F4F4F4"/>
</svg>
