<svg width="16" height="12" viewBox="0 0 16 12" fill="none" xmlns="http://www.w3.org/2000/svg">
<g id="Group">
<path id="Vector" d="M1 2.18736C1 1.80848 1.16389 1.44512 1.45561 1.17721C1.74733 0.909299 2.143 0.758789 2.55556 0.758789H13.4444C13.857 0.758789 14.2527 0.909299 14.5444 1.17721C14.8361 1.44512 15 1.80848 15 2.18736V9.33022C15 9.7091 14.8361 10.0725 14.5444 10.3404C14.2527 10.6083 13.857 10.7588 13.4444 10.7588H2.55556C2.143 10.7588 1.74733 10.6083 1.45561 10.3404C1.16389 10.0725 1 9.7091 1 9.33022V2.18736Z" stroke="#063434" stroke-width="1.5" stroke-linecap="round" stroke-linejoin="round"/>
<path id="Vector_2" d="M1 2.18726L8 6.47297L15 2.18726" stroke="#063434" stroke-width="1.5" stroke-linecap="round" stroke-linejoin="round"/>
</g>
</svg>
