<svg width="13" height="13" viewBox="0 0 13 13" fill="none" xmlns="http://www.w3.org/2000/svg">
<path id="Vector" d="M11.4757 4.96089C11.5953 4.96089 11.7122 4.92549 11.8117 4.85915C11.9111 4.79281 11.9886 4.69852 12.0344 4.58821C12.0801 4.47789 12.0921 4.3565 12.0688 4.23939C12.0455 4.12228 11.9879 4.01471 11.9033 3.93027C11.8187 3.84584 11.711 3.78834 11.5937 3.76505C11.4764 3.74175 11.3548 3.75371 11.2443 3.7994C11.1338 3.8451 11.0393 3.92248 10.9729 4.02176C10.9064 4.12104 10.871 4.23777 10.871 4.35717C10.871 4.51729 10.9347 4.67085 11.0481 4.78407C11.1615 4.89729 11.3153 4.96089 11.4757 4.96089ZM9.66149 4.96089C9.7811 4.96089 9.89802 4.92549 9.99746 4.85915C10.0969 4.79281 10.1744 4.69852 10.2202 4.58821C10.266 4.47789 10.2779 4.3565 10.2546 4.23939C10.2313 4.12228 10.1737 4.01471 10.0891 3.93027C10.0045 3.84584 9.89678 3.78834 9.77947 3.76505C9.66216 3.74175 9.54057 3.75371 9.43007 3.7994C9.31957 3.8451 9.22513 3.92248 9.15868 4.02176C9.09223 4.12104 9.05676 4.23777 9.05676 4.35717C9.05676 4.51729 9.12048 4.67085 9.23388 4.78407C9.34729 4.89729 9.50111 4.96089 9.66149 4.96089ZM7.8473 4.96089C7.96691 4.96089 8.08383 4.92549 8.18327 4.85915C8.28272 4.79281 8.36023 4.69852 8.406 4.58821C8.45177 4.47789 8.46375 4.3565 8.44041 4.23939C8.41708 4.12228 8.35949 4.01471 8.27491 3.93027C8.19034 3.84584 8.08259 3.78834 7.96528 3.76505C7.84798 3.74175 7.72638 3.75371 7.61588 3.7994C7.50538 3.8451 7.41094 3.92248 7.34449 4.02176C7.27804 4.12104 7.24258 4.23777 7.24258 4.35717C7.24258 4.51729 7.30629 4.67085 7.4197 4.78407C7.53311 4.89729 7.68692 4.96089 7.8473 4.96089ZM10.5323 7.37579C10.3993 7.37579 10.2602 7.33353 10.1271 7.30334C9.8577 7.24415 9.59293 7.16546 9.33494 7.06789C9.0544 6.966 8.74602 6.97129 8.46915 7.08274C8.19228 7.1942 7.96649 7.40394 7.83521 7.67161L7.70217 7.94329C7.11234 7.61463 6.5693 7.20853 6.08754 6.73584C5.61611 6.25536 5.20952 5.7155 4.87808 5.12994L5.14416 4.96089C5.41228 4.82983 5.62237 4.60441 5.73401 4.32801C5.84565 4.0516 5.85095 3.74373 5.74889 3.46366C5.6523 3.20571 5.5735 2.94147 5.51305 2.67278C5.48281 2.53393 5.45862 2.40111 5.44048 2.26225C5.36705 1.837 5.14394 1.4519 4.81133 1.1763C4.47873 0.900697 4.05849 0.752707 3.62629 0.758981H1.81211C1.55645 0.758646 1.30362 0.812258 1.07017 0.916301C0.836728 1.02034 0.627945 1.17247 0.457511 1.3627C0.284371 1.5574 0.155312 1.78708 0.0791303 2.03608C0.00294901 2.28508 -0.0185636 2.54755 0.0160588 2.8056C0.334577 5.33342 1.48699 7.68343 3.29151 9.48495C5.09604 11.2865 7.44997 12.437 9.982 12.755C10.0605 12.7601 10.1393 12.7601 10.2178 12.755C10.699 12.755 11.1604 12.5641 11.5007 12.2245C11.8409 11.8848 12.032 11.4241 12.032 10.9438V9.13262C12.0258 8.71135 11.8726 8.30545 11.5988 7.98479C11.3251 7.66413 10.9479 7.44877 10.5323 7.37579ZM10.8286 10.9981C10.8296 11.0856 10.8115 11.1723 10.7756 11.2522C10.7397 11.332 10.6869 11.4031 10.6207 11.4605C10.5546 11.518 10.4767 11.5603 10.3925 11.5847C10.3083 11.6091 10.2199 11.615 10.1332 11.6018C7.87522 11.3077 5.77738 10.2786 4.1645 8.67379C2.5529 7.0527 1.5238 4.94486 1.23761 2.67882C1.22447 2.59027 1.23122 2.49992 1.25737 2.4143C1.28352 2.32868 1.32841 2.24993 1.38879 2.18377C1.44479 2.12013 1.51357 2.06896 1.59067 2.0336C1.66776 1.99823 1.75145 1.97946 1.83629 1.9785H3.65048C3.79111 1.97538 3.92843 2.02129 4.03881 2.10834C4.14918 2.1954 4.22571 2.31814 4.25521 2.45544C4.2794 2.62046 4.30964 2.78347 4.34592 2.94446C4.41553 3.26277 4.5085 3.57554 4.6241 3.88023L3.77748 4.27265C3.70509 4.30581 3.63997 4.35291 3.58587 4.41126C3.53177 4.46961 3.48975 4.53805 3.46221 4.61266C3.43468 4.68727 3.42218 4.76657 3.42543 4.84602C3.42868 4.92546 3.44762 5.00348 3.48116 5.0756C4.35191 6.93643 5.85033 8.43236 7.71426 9.30166C7.86149 9.36205 8.02663 9.36205 8.17386 9.30166C8.32392 9.2459 8.44571 9.133 8.51251 8.98773L8.89349 8.14251C9.20625 8.25371 9.52529 8.34644 9.84896 8.42023C10.0062 8.45645 10.1755 8.48664 10.3388 8.51079C10.4752 8.54146 10.5968 8.61837 10.6828 8.72845C10.7688 8.83852 10.8139 8.97495 10.8105 9.11451L10.8286 10.9981Z" fill="#063434"/>
</svg>
