<svg width="20" height="20" viewBox="0 0 20 20" fill="none" xmlns="http://www.w3.org/2000/svg">
<g id="Star">
<path id="Vector" d="M11.4203 2.29976L13.0591 5.49359C13.2826 5.93819 13.8785 6.36463 14.3813 6.4463L17.3516 6.92718C19.2511 7.23568 19.6981 8.57853 18.3293 9.90324L16.0201 12.1534C15.629 12.5345 15.4149 13.2695 15.5359 13.7957L16.197 16.5812C16.7185 18.7861 15.5173 19.639 13.5153 18.4867L10.7312 16.8807C10.2284 16.5903 9.39972 16.5903 8.8876 16.8807L6.10347 18.4867C4.11084 19.639 2.90036 18.777 3.4218 16.5812L4.0829 13.7957C4.20395 13.2695 3.98979 12.5345 3.59871 12.1534L1.2895 9.90324C-0.0699637 8.57853 0.36767 7.23568 2.26719 6.92718L5.23751 6.4463C5.73102 6.36463 6.32694 5.93819 6.55042 5.49359L8.18924 2.29976C9.08313 0.566746 10.5357 0.566746 11.4203 2.29976Z" fill="white" stroke="#B8FE22" stroke-width="0.5" stroke-linecap="round" stroke-linejoin="round"/>
</g>
</svg>
