<svg width="20" height="20" viewBox="0 0 20 20" fill="none" xmlns="http://www.w3.org/2000/svg">
<g id="Star">
<path id="Vector" d="M11.9213 2.29976L13.5601 5.49359C13.7835 5.93819 14.3795 6.36463 14.8823 6.4463L17.8526 6.92718C19.7521 7.23568 20.1991 8.57853 18.8303 9.90324L16.5211 12.1534C16.13 12.5345 15.9158 13.2695 16.0369 13.7957L16.698 16.5812C17.2194 18.7861 16.0183 19.639 14.0163 18.4867L11.2322 16.8807C10.7294 16.5903 9.9007 16.5903 9.38857 16.8807L6.60445 18.4867C4.61181 19.639 3.40134 18.777 3.92277 16.5812L4.58388 13.7957C4.70493 13.2695 4.49077 12.5345 4.09969 12.1534L1.79047 9.90324C0.431013 8.57853 0.868647 7.23568 2.76816 6.92718L5.73849 6.4463C6.23199 6.36463 6.82792 5.93819 7.05139 5.49359L8.69022 2.29976C9.58411 0.566746 11.0367 0.566746 11.9213 2.29976Z" fill="#B8FE22" stroke="#B8FE22" stroke-width="0.5" stroke-linecap="round" stroke-linejoin="round"/>
</g>
</svg>
