<svg width="35" height="35" viewBox="0 0 35 35" fill="none" xmlns="http://www.w3.org/2000/svg">
<rect width="35" height="35" rx="17.5" fill="#B8FE22"/>
<path d="M9.5 23.9H25.5V25.5H9.5V23.9ZM11.1 17.5H12.7V23.1H11.1V17.5ZM15.1 17.5H16.7V23.1H15.1V17.5ZM18.3 17.5H19.9V23.1H18.3V17.5ZM22.3 17.5H23.9V23.1H22.3V17.5ZM9.5 13.5L17.5 9.5L25.5 13.5V16.7H9.5V13.5ZM11.1 14.4888V15.1H23.9V14.4888L17.5 11.2888L11.1 14.4888ZM17.5 14.3C17.2878 14.3 17.0843 14.2157 16.9343 14.0657C16.7843 13.9157 16.7 13.7122 16.7 13.5C16.7 13.2878 16.7843 13.0843 16.9343 12.9343C17.0843 12.7843 17.2878 12.7 17.5 12.7C17.7122 12.7 17.9157 12.7843 18.0657 12.9343C18.2157 13.0843 18.3 13.2878 18.3 13.5C18.3 13.7122 18.2157 13.9157 18.0657 14.0657C17.9157 14.2157 17.7122 14.3 17.5 14.3Z" fill="#063434"/>
</svg>
