<svg width="32" height="31" viewBox="0 0 32 31" fill="none" xmlns="http://www.w3.org/2000/svg">
<rect width="31.8824" height="31" rx="15.5" fill="#56B33D"/>
<path d="M13.5454 15.4998L15.1403 17.0123L18.3366 13.9873" stroke="white" stroke-width="2" stroke-linecap="round" stroke-linejoin="round"/>
<path d="M15.1138 9.53145C15.5704 9.1627 16.3182 9.1627 16.7814 9.53145L17.827 10.3814C18.0256 10.5439 18.3961 10.6752 18.6609 10.6752H19.7859C20.4873 10.6752 21.0631 11.2189 21.0631 11.8814V12.9439C21.0631 13.1877 21.202 13.5439 21.3741 13.7314L22.2741 14.7189C22.6645 15.1502 22.6645 15.8564 22.2741 16.2939L21.3741 17.2814C21.202 17.4689 21.0631 17.8189 21.0631 18.0689V19.1314C21.0631 19.7939 20.4873 20.3377 19.7859 20.3377H18.6609C18.4028 20.3377 18.0256 20.4689 17.827 20.6314L16.7814 21.4814C16.3248 21.8502 15.577 21.8502 15.1138 21.4814L14.0682 20.6314C13.8697 20.4689 13.4991 20.3377 13.2344 20.3377H12.0895C11.3881 20.3377 10.8123 19.7939 10.8123 19.1314V18.0627C10.8123 17.8189 10.6734 17.4689 10.5079 17.2814L9.61453 16.2877C9.2307 15.8564 9.2307 15.1564 9.61453 14.7252L10.5079 13.7314C10.6734 13.5439 10.8123 13.1939 10.8123 12.9502V11.8752C10.8123 11.2127 11.3881 10.6689 12.0895 10.6689H13.2344C13.4925 10.6689 13.8697 10.5377 14.0682 10.3752L15.1138 9.53145Z" stroke="white" stroke-width="2" stroke-linecap="round" stroke-linejoin="round"/>
</svg>
