<svg width="344" height="40" viewBox="0 0 344 40" fill="none" xmlns="http://www.w3.org/2000/svg">
<rect x="10" width="40" height="40" rx="20" fill="#B8FE22"/>
<path d="M32.6667 13H27.3333C25 13 24 14.4 24 16.5V23.5C24 25.6 25 27 27.3333 27H32.6667C35 27 36 25.6 36 23.5V16.5C36 14.4 35 13 32.6667 13ZM27.3333 20.175H30C30.2733 20.175 30.5 20.413 30.5 20.7C30.5 20.987 30.2733 21.225 30 21.225H27.3333C27.06 21.225 26.8333 20.987 26.8333 20.7C26.8333 20.413 27.06 20.175 27.3333 20.175ZM32.6667 24.025H27.3333C27.06 24.025 26.8333 23.787 26.8333 23.5C26.8333 23.213 27.06 22.975 27.3333 22.975H32.6667C32.94 22.975 33.1667 23.213 33.1667 23.5C33.1667 23.787 32.94 24.025 32.6667 24.025ZM34.3333 18.075H33C31.9867 18.075 31.1667 17.214 31.1667 16.15V14.75C31.1667 14.463 31.3933 14.225 31.6667 14.225C31.94 14.225 32.1667 14.463 32.1667 14.75V16.15C32.1667 16.633 32.54 17.025 33 17.025H34.3333C34.6067 17.025 34.8333 17.263 34.8333 17.55C34.8333 17.837 34.6067 18.075 34.3333 18.075Z" fill="#063434"/>
<rect x="50" y="16" width="55" height="8" fill="#B8FE22"/>
<rect x="105" width="40" height="40" rx="20" fill="#B8FE22"/>
<path d="M122.604 20L124.199 21.5125L127.396 18.4875" stroke="#063434" stroke-width="1.5" stroke-linecap="round" stroke-linejoin="round"/>
<path d="M124.173 14.0313C124.629 13.6625 125.377 13.6625 125.841 14.0313L126.886 14.8813C127.085 15.0438 127.455 15.175 127.72 15.175H128.845C129.546 15.175 130.122 15.7188 130.122 16.3813V17.4438C130.122 17.6875 130.261 18.0438 130.433 18.2313L131.333 19.2188C131.724 19.65 131.724 20.3563 131.333 20.7938L130.433 21.7813C130.261 21.9688 130.122 22.3188 130.122 22.5688V23.6313C130.122 24.2938 129.546 24.8375 128.845 24.8375H127.72C127.462 24.8375 127.085 24.9688 126.886 25.1313L125.841 25.9813C125.384 26.35 124.636 26.35 124.173 25.9813L123.127 25.1313C122.929 24.9688 122.558 24.8375 122.293 24.8375H121.149C120.447 24.8375 119.871 24.2938 119.871 23.6313V22.5625C119.871 22.3188 119.732 21.9688 119.567 21.7813L118.674 20.7875C118.29 20.3563 118.29 19.6563 118.674 19.225L119.567 18.2313C119.732 18.0438 119.871 17.6938 119.871 17.45V16.375C119.871 15.7125 120.447 15.1688 121.149 15.1688H122.293C122.552 15.1688 122.929 15.0375 123.127 14.875L124.173 14.0313Z" stroke="#063434" stroke-width="1.5" stroke-linecap="round" stroke-linejoin="round"/>
<rect x="145" y="16" width="55" height="8" fill="#CCCCCC"/>
<rect x="200" y="0.5" width="39" height="39" rx="19.5" fill="#CCCCCC"/>
<path d="M211.5 17.6429C212.349 17.6429 213.163 17.3117 213.763 16.7223C214.363 16.1329 214.7 15.3335 214.7 14.5M224.3 25.5C224.3 24.6665 224.637 23.8671 225.237 23.2777C225.837 22.6883 226.651 22.3571 227.5 22.3571M211.5 16.0714C211.5 15.6547 211.669 15.255 211.969 14.9603C212.269 14.6656 212.676 14.5 213.1 14.5H225.9C226.324 14.5 226.731 14.6656 227.031 14.9603C227.331 15.255 227.5 15.6547 227.5 16.0714V23.9286C227.5 24.3453 227.331 24.745 227.031 25.0397C226.731 25.3344 226.324 25.5 225.9 25.5H213.1C212.676 25.5 212.269 25.3344 211.969 25.0397C211.669 24.745 211.5 24.3453 211.5 23.9286V16.0714ZM221.901 20C221.901 21.3018 220.826 22.3571 219.501 22.3571C218.175 22.3571 217.101 21.3018 217.101 20C217.101 18.6982 218.175 17.6428 219.501 17.6428C220.826 17.6428 221.901 18.6982 221.901 20Z" stroke="#666666" stroke-width="1.2" stroke-linecap="round" stroke-linejoin="round"/>
<rect x="239" y="16" width="55" height="8" fill="#CCCCCC"/>
<rect x="294" width="40" height="40" rx="20" fill="#CCCCCC"/>
<path d="M312.703 12C310.89 12 309.391 13.4357 309.391 15.2432C309.391 17.0508 310.89 18.4865 312.703 18.4865C314.515 18.4865 316.014 17.0508 316.014 15.2432C316.014 13.4357 314.515 12 312.703 12ZM310.688 15.2432C310.688 14.1846 311.574 13.2973 312.703 13.2973C313.831 13.2973 314.717 14.1846 314.717 15.2432C314.717 16.3018 313.831 17.1892 312.703 17.1892C311.574 17.1892 310.688 16.3018 310.688 15.2432ZM310.183 20.3114C310.239 20.2958 310.358 20.3018 310.515 20.403C310.958 20.6902 311.726 21.069 312.703 21.069C313.679 21.069 314.447 20.6902 314.891 20.403C315.046 20.3018 315.167 20.2958 315.222 20.3105C315.346 20.3451 315.469 20.382 315.592 20.4212L316.444 20.6936C316.606 20.7403 316.78 20.7219 316.929 20.6424C317.078 20.563 317.19 20.4287 317.241 20.268C317.292 20.1073 317.279 19.9329 317.204 19.7818C317.129 19.6307 316.998 19.5147 316.839 19.4586L315.988 19.1853C315.848 19.1409 315.707 19.0991 315.566 19.0599C315.037 18.9146 314.534 19.0884 314.186 19.3142C313.866 19.5217 313.343 19.7717 312.703 19.7717C312.063 19.7717 311.539 19.5209 311.219 19.3133C310.871 19.0884 310.368 18.9146 309.839 19.0599C309.698 19.0991 309.557 19.1409 309.417 19.1853L308.566 19.4586C308.082 19.6098 307.641 19.8716 307.276 20.2232C306.912 20.5748 306.634 21.0065 306.465 21.4841C306.4 21.6744 306.373 21.8577 306.357 22.0065L306.021 25.1831C305.882 26.2011 306.447 27.2484 307.561 27.507C308.598 27.7475 310.265 28 312.703 28C312.875 28 313.04 27.9317 313.161 27.81C313.283 27.6884 313.351 27.5234 313.351 27.3514C313.351 27.1793 313.283 27.0143 313.161 26.8927C313.04 26.771 312.875 26.7027 312.703 26.7027C310.355 26.7027 308.786 26.4605 307.855 26.2443C307.486 26.1578 307.243 25.8093 307.307 25.3535L307.308 25.3423L307.647 22.1423C307.659 22.035 307.672 21.9624 307.691 21.9079C307.794 21.6208 307.963 21.3616 308.183 21.1508C308.403 20.9401 308.67 20.7835 308.961 20.6936L309.813 20.4212C309.936 20.382 310.059 20.3459 310.183 20.3114ZM321.81 23.9178C321.873 23.8585 321.924 23.7868 321.96 23.7073C321.995 23.6277 322.014 23.5418 322.016 23.4547C322.017 23.3676 322.001 23.2811 321.969 23.2003C321.936 23.1196 321.888 23.0462 321.826 22.9846C321.764 22.923 321.691 22.8745 321.61 22.8418C321.53 22.8092 321.443 22.7932 321.356 22.7947C321.269 22.7963 321.183 22.8153 321.103 22.8508C321.024 22.8862 320.952 22.9374 320.893 23.0011L317.892 26.0022L316.62 24.7308C316.561 24.6671 316.489 24.616 316.41 24.5805C316.33 24.5451 316.244 24.526 316.157 24.5245C316.07 24.5229 315.984 24.5389 315.903 24.5716C315.822 24.6042 315.749 24.6528 315.687 24.7143C315.626 24.7759 315.577 24.8493 315.544 24.9301C315.512 25.0108 315.496 25.0974 315.497 25.1845C315.499 25.2715 315.518 25.3574 315.553 25.437C315.589 25.5166 315.64 25.5882 315.704 25.6476L317.892 27.8357L321.81 23.9178Z" fill="#666666"/>
</svg>
