<svg width="80" height="45" viewBox="0 0 80 45" fill="none" xmlns="http://www.w3.org/2000/svg">
<g id="Group">
<path id="Vector" d="M23.6913 2.62305H13.764C13.1998 2.62305 12.6587 2.8759 12.2598 3.32599C11.8608 3.77608 11.6367 4.38653 11.6367 5.02305V40.223C11.6367 40.5382 11.6917 40.8503 11.7986 41.1415C11.9056 41.4327 12.0622 41.6972 12.2598 41.9201C12.4573 42.143 12.6918 42.3197 12.9499 42.4404C13.208 42.561 13.4846 42.623 13.764 42.623H23.6913C23.9706 42.623 24.2472 42.561 24.5053 42.4404C24.7634 42.3197 24.9979 42.143 25.1955 41.9201C25.393 41.6972 25.5497 41.4327 25.6566 41.1415C25.7635 40.8503 25.8185 40.5382 25.8185 40.223V5.02305C25.8185 4.38653 25.5944 3.77608 25.1955 3.32599C24.7965 2.8759 24.2555 2.62305 23.6913 2.62305ZM66.2367 2.62305H56.3094C55.7453 2.62305 55.2042 2.8759 54.8052 3.32599C54.4063 3.77608 54.1822 4.38653 54.1822 5.02305V40.223C54.1822 40.5382 54.2372 40.8503 54.3441 41.1415C54.451 41.4327 54.6077 41.6972 54.8052 41.9201C55.0028 42.143 55.2373 42.3197 55.4954 42.4404C55.7535 42.561 56.0301 42.623 56.3094 42.623H66.2367C66.5161 42.623 66.7927 42.561 67.0508 42.4404C67.3089 42.3197 67.5434 42.143 67.7409 41.9201C67.9385 41.6972 68.0952 41.4327 68.2021 41.1415C68.309 40.8503 68.364 40.5382 68.364 40.223V5.02305C68.364 4.38653 68.1399 3.77608 67.7409 3.32599C67.342 2.8759 66.8009 2.62305 66.2367 2.62305Z" stroke="white" stroke-width="4" stroke-linecap="round" stroke-linejoin="round"/>
<path id="Vector_2" d="M25.8182 22.623H54.1818M1 32.223V13.023C1 12.3865 1.22412 11.7761 1.62306 11.326C2.022 10.8759 2.56309 10.623 3.12727 10.623H9.50909C10.0733 10.623 10.6144 10.8759 11.0133 11.326C11.4122 11.7761 11.6364 12.3865 11.6364 13.023V32.223C11.6364 32.8596 11.4122 33.47 11.0133 33.9201C10.6144 34.3702 10.0733 34.623 9.50909 34.623H3.12727C2.56309 34.623 2.022 34.3702 1.62306 33.9201C1.22412 33.47 1 32.8596 1 32.223ZM79 32.223V13.023C79 12.3865 78.7759 11.7761 78.3769 11.326C77.978 10.8759 77.4369 10.623 76.8727 10.623H70.4909C69.9267 10.623 69.3856 10.8759 68.9867 11.326C68.5878 11.7761 68.3636 12.3865 68.3636 13.023V32.223C68.3636 32.8596 68.5878 33.47 68.9867 33.9201C69.3856 34.3702 69.9267 34.623 70.4909 34.623H76.8727C77.4369 34.623 77.978 34.3702 78.3769 33.9201C78.7759 33.47 79 32.8596 79 32.223Z" stroke="white" stroke-width="4" stroke-linecap="round" stroke-linejoin="round"/>
</g>
</svg>
