<svg width="14" height="16" viewBox="0 0 14 16" fill="none" xmlns="http://www.w3.org/2000/svg">
<path d="M9.30592 11.6389V12.4167C9.30592 13.7053 8.26125 14.75 6.97259 14.75C5.68392 14.75 4.63926 13.7053 4.63926 12.4167V11.6389M9.30592 11.6389H4.63926M9.30592 11.6389H12.0985C12.3961 11.6389 12.5455 11.6389 12.666 11.5983C12.8961 11.5206 13.0762 11.3399 13.1538 11.1098C13.1946 10.9889 13.1946 10.8389 13.1946 10.5391C13.1946 10.4078 13.1944 10.3422 13.1842 10.2797C13.1648 10.1615 13.1189 10.0494 13.049 9.95206C13.0121 9.90064 12.9652 9.85371 12.8727 9.7612L12.5697 9.45822C12.472 9.36048 12.417 9.22788 12.417 9.08965V6.19444C12.417 3.18756 9.97948 0.749993 6.97259 0.75C3.96571 0.750007 1.52814 3.18757 1.52814 6.19444V9.08967C1.52814 9.22791 1.47311 9.36048 1.37536 9.45822L1.07241 9.76117C0.979622 9.85396 0.933177 9.90059 0.8962 9.95208C0.82632 10.0494 0.780035 10.1615 0.760633 10.2797C0.750366 10.3422 0.750366 10.4079 0.750366 10.5391C0.750366 10.839 0.750366 10.9889 0.791162 11.1098C0.868783 11.3399 1.04965 11.5206 1.27977 11.5983C1.40025 11.6389 1.54916 11.6389 1.84669 11.6389H4.63926" stroke="#F4F4F4" stroke-width="1.5" stroke-linecap="round" stroke-linejoin="round"/>
</svg>
