<svg width="12" height="12" viewBox="0 0 12 12" fill="none" xmlns="http://www.w3.org/2000/svg">
<g id="Property 1=Half">
<path id="Vector" d="M7.20604 1.72209L8.11648 3.49644C8.24064 3.74344 8.57171 3.98035 8.85105 4.02572L10.5012 4.29288C11.5565 4.46427 11.8048 5.21029 11.0444 5.94625L9.76149 7.19635C9.54423 7.40807 9.42525 7.81637 9.4925 8.10873L9.85978 9.65625C10.1495 10.8812 9.48215 11.355 8.36996 10.7148L6.82324 9.82259C6.5439 9.66129 6.0835 9.66129 5.79899 9.82259L4.25225 10.7148C3.14524 11.355 2.47275 10.8761 2.76243 9.65625L3.12972 8.10873C3.19697 7.81637 3.07799 7.40807 2.86072 7.19635L1.57782 5.94625C0.822568 5.21029 1.0657 4.46427 2.12099 4.29288L3.77117 4.02572C4.04533 3.98035 4.3764 3.74344 4.50056 3.49644L5.41102 1.72209C5.90762 0.759303 6.71461 0.759303 7.20604 1.72209Z" fill="url(#paint0_linear_4201_18265)" stroke="#55A6C4" stroke-width="0.5" stroke-linecap="round" stroke-linejoin="round"/>
</g>
<defs>
<linearGradient id="paint0_linear_4201_18265" x1="1.15214" y1="6" x2="13.6549" y2="6" gradientUnits="userSpaceOnUse">
<stop offset="0.40625" stop-color="#55A6C4"/>
<stop offset="0.40635" stop-color="white"/>
</linearGradient>
</defs>
</svg>
