<svg width="22" height="22" viewBox="0 0 22 22" fill="none" xmlns="http://www.w3.org/2000/svg">
<path d="M21.0001 17.3283V10.5388C21.0001 9.88489 20.9995 9.55775 20.9183 9.25347C20.8463 8.98381 20.7282 8.72863 20.5683 8.49804C20.3879 8.23783 20.137 8.02204 19.6344 7.59144L13.6344 2.45154C12.7011 1.65206 12.2345 1.25253 11.7093 1.10048C11.2466 0.966506 10.7534 0.966506 10.2906 1.10048C9.76587 1.25241 9.29991 1.65157 8.36805 2.44984L2.36607 7.59144C1.8634 8.02205 1.61265 8.23783 1.43223 8.49804C1.27234 8.72863 1.15328 8.98381 1.08131 9.25347C1.0001 9.55775 1.0001 9.88488 1.0001 10.5388V17.3283C1.0001 18.4687 1.0001 19.0387 1.1904 19.4885C1.44414 20.0882 1.9305 20.5653 2.54307 20.8137C3.0025 21 3.58492 21 4.74978 21C5.91463 21 6.4977 21 6.95713 20.8137C7.5697 20.5653 8.05593 20.0883 8.30967 19.4886C8.49997 19.0388 8.5001 18.4686 8.5001 17.3282V16.1044C8.5001 14.7526 9.61939 13.6568 11.0001 13.6568C12.3808 13.6568 13.5001 14.7526 13.5001 16.1044V17.3282C13.5001 18.4686 13.5001 19.0388 13.6904 19.4886C13.9441 20.0883 14.4305 20.5653 15.0431 20.8137C15.5025 21 16.0849 21 17.2498 21C18.4146 21 18.9977 21 19.4571 20.8137C20.0697 20.5653 20.5559 20.0882 20.8097 19.4885C21 19.0387 21.0001 18.4687 21.0001 17.3283Z" fill="none" stroke="#F4F4F4" stroke-width="2.5" stroke-linecap="round" stroke-linejoin="round"/>
</svg>
