<svg width="30" height="30" viewBox="0 0 30 30" fill="none" xmlns="http://www.w3.org/2000/svg">
<path d="M13.125 20C13.125 19.5027 13.3225 19.0258 13.6742 18.6742C14.0258 18.3225 14.5027 18.125 15 18.125C15.4973 18.125 15.9742 18.3225 16.3258 18.6742C16.6775 19.0258 16.875 19.5027 16.875 20V21.875C16.875 22.3723 16.6775 22.8492 16.3258 23.2008C15.9742 23.5525 15.4973 23.75 15 23.75C14.5027 23.75 14.0258 23.5525 13.6742 23.2008C13.3225 22.8492 13.125 22.3723 13.125 21.875V20Z" fill="white"/>
<path fill-rule="evenodd" clip-rule="evenodd" d="M8.4375 9.0625C8.4375 7.32202 9.1289 5.65282 10.3596 4.42211C11.5903 3.1914 13.2595 2.5 15 2.5C16.7405 2.5 18.4097 3.1914 19.6404 4.42211C20.8711 5.65282 21.5625 7.32202 21.5625 9.0625V11.4062H23.125C23.8709 11.4062 24.5863 11.7026 25.1137 12.23C25.6412 12.7575 25.9375 13.4728 25.9375 14.2188V21.5625C25.9375 22.3422 25.7839 23.1143 25.4855 23.8347C25.1871 24.5551 24.7498 25.2096 24.1984 25.7609C23.6471 26.3123 22.9926 26.7496 22.2722 27.048C21.5518 27.3464 20.7797 27.5 20 27.5H10C8.42528 27.5 6.91505 26.8744 5.80155 25.7609C4.68806 24.6474 4.0625 23.1372 4.0625 21.5625V14.2188C4.0625 13.4728 4.35882 12.7575 4.88626 12.23C5.41371 11.7026 6.12908 11.4062 6.875 11.4062H8.4375V9.0625ZM10.3125 11.4062H19.6875V9.0625C19.6875 7.8193 19.1936 6.62701 18.3146 5.74794C17.4355 4.86886 16.2432 4.375 15 4.375C13.7568 4.375 12.5645 4.86886 11.6854 5.74794C10.8064 6.62701 10.3125 7.8193 10.3125 9.0625V11.4062ZM6.875 13.2812C6.62636 13.2812 6.3879 13.38 6.21209 13.5558C6.03627 13.7317 5.9375 13.9701 5.9375 14.2188V21.5625C5.9375 22.6399 6.36551 23.6733 7.12738 24.4351C7.88925 25.197 8.92256 25.625 10 25.625H20C21.0774 25.625 22.1108 25.197 22.8726 24.4351C23.6345 23.6733 24.0625 22.6399 24.0625 21.5625V14.2188C24.0625 13.9701 23.9637 13.7317 23.7879 13.5558C23.6121 13.38 23.3736 13.2812 23.125 13.2812H6.875Z" fill="white"/>
</svg>
