<svg width="41" height="40" viewBox="0 0 41 40" fill="none" xmlns="http://www.w3.org/2000/svg">
<path d="M30.9579 31.8799H32.4805M26.3904 31.8799H23.3453V27.3123M27.9129 27.3123H32.4805V22.7447H30.9579M23.3453 22.7447H26.3904M8.12012 27.3119C8.12012 25.8931 8.12012 25.1837 8.35191 24.6241C8.66096 23.878 9.25336 23.2856 9.99948 22.9765C10.5591 22.7447 11.2685 22.7447 12.6873 22.7447C14.1061 22.7447 14.8163 22.7447 15.3759 22.9765C16.122 23.2856 16.7142 23.878 17.0233 24.6241C17.2551 25.1837 17.2551 25.8935 17.2551 27.3123C17.2551 28.7311 17.2551 29.4405 17.0233 30.0001C16.7142 30.7462 16.122 31.3389 15.3759 31.6479C14.8163 31.8797 14.1061 31.8797 12.6873 31.8797C11.2685 31.8797 10.5591 31.8797 9.99948 31.6479C9.25336 31.3389 8.66096 30.7466 8.35191 30.0005C8.12012 29.4409 8.12012 28.7307 8.12012 27.3119ZM23.3453 12.0867C23.3453 10.6679 23.3453 9.95848 23.5771 9.39889C23.8862 8.65277 24.4786 8.06037 25.2247 7.75132C25.7843 7.51953 26.4937 7.51953 27.9125 7.51953C29.3313 7.51953 30.0415 7.51953 30.6011 7.75132C31.3472 8.06037 31.9395 8.65277 32.2485 9.39889C32.4803 9.95848 32.4803 10.6683 32.4803 12.0871C32.4803 13.5059 32.4803 14.2153 32.2485 14.7749C31.9395 15.521 31.3472 16.1137 30.6011 16.4227C30.0415 16.6545 29.3313 16.6545 27.9125 16.6545C26.4937 16.6545 25.7843 16.6545 25.2247 16.4227C24.4786 16.1137 23.8862 15.5214 23.5771 14.7753C23.3453 14.2157 23.3453 13.5055 23.3453 12.0867ZM8.12012 12.0867C8.12012 10.6679 8.12012 9.95848 8.35191 9.39889C8.66096 8.65277 9.25336 8.06037 9.99948 7.75132C10.5591 7.51953 11.2685 7.51953 12.6873 7.51953C14.1061 7.51953 14.8163 7.51953 15.3759 7.75132C16.122 8.06037 16.7142 8.65277 17.0233 9.39889C17.2551 9.95848 17.2551 10.6683 17.2551 12.0871C17.2551 13.5059 17.2551 14.2153 17.0233 14.7749C16.7142 15.521 16.122 16.1137 15.3759 16.4227C14.8163 16.6545 14.1061 16.6545 12.6873 16.6545C11.2685 16.6545 10.5591 16.6545 9.99948 16.4227C9.25336 16.1137 8.66096 15.5214 8.35191 14.7753C8.12012 14.2157 8.12012 13.5055 8.12012 12.0867Z" stroke="white" stroke-width="2" stroke-linecap="round" stroke-linejoin="round"/>
<path d="M10.8169 3.4751L4.84855 3.29863C4.29652 3.28231 3.83577 3.71657 3.81943 4.2686L3.6206 10.9861" stroke="#F4F4F4" stroke-width="1.5" stroke-linecap="round"/>
<path d="M29.7738 3.4751L35.7421 3.29863C36.2941 3.28231 36.7549 3.71657 36.7712 4.2686L36.9701 10.9861" stroke="#F4F4F4" stroke-width="1.5" stroke-linecap="round"/>
<path d="M29.7738 36.5249L35.7421 36.7014C36.2941 36.7177 36.7549 36.2834 36.7712 35.7314L36.9701 29.0139" stroke="#F4F4F4" stroke-width="1.5" stroke-linecap="round"/>
<path d="M10.8169 36.5249L4.84855 36.7014C4.29652 36.7177 3.83577 36.2834 3.81943 35.7314L3.6206 29.0139" stroke="#F4F4F4" stroke-width="1.5" stroke-linecap="round"/>
</svg>
