<svg width="19" height="20" viewBox="0 0 19 20" fill="none" xmlns="http://www.w3.org/2000/svg">
<path d="M9.25888 12.7773C10.635 12.7773 12.7925 13.1371 14.5753 13.8486C15.4656 14.204 16.1843 14.6158 16.6593 15.0508C17.1267 15.4788 17.2686 15.8391 17.2686 16.1387V17.959C16.8892 18.1038 16.2743 18.2504 15.4405 18.375C13.7871 18.622 11.5384 18.75 9.25888 18.75C6.97951 18.75 4.73151 18.622 3.07821 18.375C2.2445 18.2504 1.62952 18.1038 1.25009 17.959V16.1387L1.25692 16.0234C1.29045 15.748 1.45027 15.4255 1.85946 15.0508C2.33438 14.6159 3.05236 14.204 3.94247 13.8486C5.72508 13.1371 7.8827 12.7774 9.25888 12.7773ZM9.25888 1.25C11.1198 1.25 12.6388 2.77042 12.6388 4.61133C12.6386 6.45207 11.1197 7.97168 9.25888 7.97168C7.39828 7.97147 5.88018 6.45194 5.87997 4.61133C5.87997 2.77055 7.39815 1.25021 9.25888 1.25Z" stroke="#F4F4F4" stroke-width="2.5"/>
</svg>
