<svg width="41" height="41" viewBox="0 0 41 41" fill="none" xmlns="http://www.w3.org/2000/svg">
<rect width="41" height="41" rx="20.5" fill="#56B33D"/>
<path d="M7.90747 33.1837L13.7509 15.8596L24.2691 26.9965L7.90747 33.1837ZM11.7641 29.1002L20.0034 26.0066L14.6859 20.3763L11.7641 29.1002ZM22.5745 21.4899L21.3474 20.1906L27.892 13.261C28.5153 12.6011 29.2652 12.2711 30.1417 12.2711C31.0182 12.2711 31.7681 12.6011 32.3914 13.261L33.0927 14.0035L31.8655 15.3028L31.1643 14.5603C30.8916 14.2716 30.5508 14.1272 30.1417 14.1272C29.7327 14.1272 29.3918 14.2716 29.1191 14.5603L22.5745 21.4899ZM17.8997 16.5402L16.6726 15.2409L17.3738 14.4985C17.6465 14.2097 17.7829 13.8591 17.7829 13.4466C17.7829 13.0342 17.6465 12.6835 17.3738 12.3948L16.6142 11.5905L17.8413 10.2912L18.6009 11.0955C19.2242 11.7555 19.5359 12.5392 19.5359 13.4466C19.5359 14.3541 19.2242 15.1378 18.6009 15.7978L17.8997 16.5402ZM20.2371 19.0151L19.01 17.7158L23.2173 13.261C23.49 12.9723 23.6263 12.6114 23.6263 12.1783C23.6263 11.7452 23.49 11.3842 23.2173 11.0955L21.3474 9.11562L22.5745 7.81631L24.4444 9.79621C25.0677 10.4562 25.3793 11.2502 25.3793 12.1783C25.3793 13.1063 25.0677 13.9004 24.4444 14.5603L20.2371 19.0151ZM24.9119 23.9648L23.6847 22.6655L25.5546 20.6856C26.1779 20.0256 26.9278 19.6957 27.8044 19.6957C28.6809 19.6957 29.4308 20.0256 30.0541 20.6856L31.924 22.6655L30.6968 23.9648L28.827 21.9849C28.5543 21.6962 28.2134 21.5518 27.8044 21.5518C27.3953 21.5518 27.0544 21.6962 26.7818 21.9849L24.9119 23.9648Z" fill="#F4F4F4"/>
</svg>