<svg width="26" height="26" viewBox="0 0 26 26" fill="none" xmlns="http://www.w3.org/2000/svg">
<g id="Iconsax/Linear/bag2">
<path id="Vector" d="M8.70722 8.4895V7.47909C8.70722 5.13534 10.5926 2.83325 12.9364 2.6145C13.5876 2.55052 14.245 2.62359 14.8663 2.82902C15.4876 3.03445 16.059 3.36768 16.5437 3.80726C17.0284 4.24684 17.4157 4.78304 17.6807 5.38135C17.9457 5.97965 18.0824 6.62681 18.0822 7.28117V8.71867M10.2697 23.4166H16.5197C20.7072 23.4166 21.4572 21.7395 21.676 19.6978L22.4572 13.4478C22.7385 10.9062 22.0093 8.83325 17.5614 8.83325H9.22805C4.78013 8.83325 4.05097 10.9062 4.33222 13.4478L5.11347 19.6978C5.33222 21.7395 6.08222 23.4166 10.2697 23.4166Z" stroke="#B8FE22" stroke-width="2" stroke-miterlimit="10" stroke-linecap="round" stroke-linejoin="round"/>
<path id="Vector_2" d="M17.0348 13H17.0452M9.74316 13H9.7515" stroke="#B8FE22" stroke-width="2" stroke-linecap="round" stroke-linejoin="round"/>
</g>
</svg>
