<svg width="21" height="16" viewBox="0 0 21 16" fill="none" xmlns="http://www.w3.org/2000/svg">
<path id="Vector" d="M3.0638 16H18.1471C18.3971 16 18.6055 15.7922 18.6055 15.5429V14.4208H2.60547V15.5429C2.60547 15.8338 2.8138 16 3.0638 16ZM19.3555 2.7013C18.6471 2.7013 18.1055 3.24156 18.1055 3.94805C18.1055 4.28052 18.2305 4.61299 18.4805 4.82078L14.7305 8.64416L11.1888 2.32727C11.5638 2.11948 11.8138 1.7039 11.8138 1.24675C11.8138 0.54026 11.2721 0 10.5638 0C9.85547 0 9.3138 0.54026 9.3138 1.24675C9.3138 1.7039 9.5638 2.11948 9.9388 2.32727L6.39714 8.64416L2.64714 4.82078C2.98047 4.61299 3.10547 4.28052 3.10547 3.94805C3.10547 3.24156 2.5638 2.7013 1.85547 2.7013C1.14714 2.7013 0.605469 3.24156 0.605469 3.94805C0.605469 4.65455 1.14714 5.19481 1.85547 5.19481C1.89714 5.19481 1.9388 5.19481 1.9388 5.19481L2.60547 13.6727H18.6055L19.2721 5.19481C19.3138 5.19481 19.3555 5.19481 19.3555 5.19481C20.0638 5.19481 20.6055 4.65455 20.6055 3.94805C20.6055 3.28312 20.0638 2.7013 19.3555 2.7013Z" fill="#666666"/>
</svg>
