<svg width="20" height="20" viewBox="0 0 20 20" fill="none" xmlns="http://www.w3.org/2000/svg">
<path d="M19.9895 10.1871C19.9895 9.36767 19.9214 8.76973 19.7742 8.14966H10.1992V11.848H15.8195C15.7062 12.7671 15.0943 14.1512 13.7346 15.0813L13.7155 15.2051L16.7429 17.4969L16.9527 17.5174C18.8789 15.7789 19.9895 13.221 19.9895 10.1871Z" fill="#4285F4"/>
<path d="M10.1983 19.9312C12.9517 19.9312 15.2633 19.0453 16.9517 17.5173L13.7336 15.0812C12.8725 15.6681 11.7166 16.0777 10.1983 16.0777C7.50145 16.0777 5.21254 14.3393 4.39661 11.9365L4.27701 11.9464L1.12906 14.3271L1.08789 14.439C2.76491 17.6944 6.20963 19.9312 10.1983 19.9312Z" fill="#34A853"/>
<path d="M4.3965 11.9366C4.18121 11.3165 4.05661 10.6521 4.05661 9.96559C4.05661 9.27902 4.18121 8.61467 4.38517 7.9946L4.37947 7.86253L1.19206 5.4436L1.08778 5.49208C0.3966 6.84299 0 8.36002 0 9.96559C0 11.5712 0.3966 13.0881 1.08778 14.439L4.3965 11.9366Z" fill="#FBBC05"/>
<path d="M10.1983 3.85336C12.1132 3.85336 13.405 4.66168 14.1415 5.33718L17.0197 2.59107C15.2521 0.985496 12.9517 0 10.1983 0C6.20963 0 2.76491 2.23672 1.08789 5.49214L4.38529 7.99466C5.21254 5.59183 7.50145 3.85336 10.1983 3.85336Z" fill="#EB4335"/>
</svg>
