<svg width="20" height="20" viewBox="0 0 20 20" fill="none" xmlns="http://www.w3.org/2000/svg">
<path d="M18.8889 0H1.11111C0.497461 0 0 0.497461 0 1.11111V18.8889C0 19.5025 0.497461 20 1.11111 20H18.8889C19.5025 20 20 19.5025 20 18.8889V1.11111C20 0.497461 19.5025 0 18.8889 0Z" fill="#117EB8"/>
<path fill-rule="evenodd" clip-rule="evenodd" d="M3.6506 7.73552H6.32366V16.3361H3.6506V7.73552ZM4.98755 3.46024C5.84227 3.46024 6.53671 4.15468 6.53671 5.00941C6.53671 5.86496 5.84227 6.55968 4.98755 6.55968C4.78156 6.56358 4.57687 6.52638 4.38544 6.45025C4.194 6.37412 4.01966 6.26059 3.87261 6.1163C3.72556 5.97201 3.60875 5.79985 3.52901 5.60989C3.44927 5.41993 3.4082 5.21598 3.4082 5.00996C3.4082 4.80394 3.44927 4.59999 3.52901 4.41003C3.60875 4.22007 3.72556 4.04791 3.87261 3.90362C4.01966 3.75933 4.194 3.6458 4.38544 3.56967C4.57687 3.49354 4.78156 3.45634 4.98755 3.46024ZM8.00032 7.73524H10.5642V8.91052H10.5998C10.9567 8.23441 11.8287 7.52163 13.1289 7.52163C15.8356 7.52163 16.3356 9.30302 16.3356 11.6188V16.3361H13.6642V12.1536C13.6642 11.1563 13.6459 9.87329 12.2753 9.87329C10.8845 9.87329 10.6709 10.9597 10.6709 12.0816V16.3361H8.00005V7.73552L8.00032 7.73524Z" fill="white"/>
</svg>
