<svg width="16" height="16" viewBox="0 0 16 16" fill="none" xmlns="http://www.w3.org/2000/svg">
<path id="Vector" d="M0.267813 0.786396L8.34845 8.00416L0.327909 15.2885C0.19669 15.1328 0.0948298 14.9584 0.026503 14.7722C-0.00883434 14.5615 -0.00883434 14.3472 0.026503 14.1364V1.74051C0.00246449 1.40788 0.0865993 1.07524 0.266888 0.786396M11.8294 4.85634L9.19165 7.23615L1.20716 0.084072C1.46604 0.00238685 1.74341 -0.0203501 2.0143 0.0183872C2.4396 0.124494 2.84548 0.287864 3.21808 0.500919L10.4444 4.14307C10.9141 4.37296 11.3718 4.61465 11.8294 4.85634ZM9.19258 8.78312L11.8174 11.1309L9.91466 12.096L4.10935 15.035C3.62858 15.2767 3.14596 15.5074 2.67629 15.771C2.47531 15.885 2.24996 15.9586 2.01527 15.9869C1.78058 16.0152 1.54196 15.9976 1.31534 15.9352L9.19258 8.78312ZM15.9973 8.00416C16.0041 8.29863 15.9224 8.58918 15.7611 8.84445C15.5998 9.09972 15.365 9.31 15.082 9.4526L12.913 10.549L10.0589 8.00416L12.925 5.4155C13.66 5.78856 14.383 6.16162 15.1051 6.51278C15.3931 6.65938 15.6296 6.87725 15.7874 7.14117C15.9451 7.40509 16.0185 7.70429 15.9973 8.00416Z" fill="#063434"/>
</svg>
