<svg width="41" height="41" viewBox="0 0 41 41" fill="none" xmlns="http://www.w3.org/2000/svg">
<rect width="41" height="41" rx="20.5" fill="#55A6C4"/>
<path d="M10 10H31M13.8182 10V14.7727C13.8182 17.6364 18.5909 17.8607 18.5909 20.5C18.5909 23.1393 13.8182 23.3636 13.8182 26.2273V31M27.1818 10V14.7727C27.1818 17.6364 22.4091 17.8607 22.4091 20.5C22.4091 23.1393 27.1818 23.3636 27.1818 26.2273V31M10 31H31M18.5909 13.3409H22.4091V14.7727C22.4091 15.7273 20.5 16.6818 20.5 16.6818C20.5 16.6818 18.5909 15.7273 18.5909 14.7727V13.3409ZM16.6818 29.0909C16.6818 27.1818 20.5 25.2727 20.5 25.2727C20.5 25.2727 24.3182 27.1818 24.3182 29.0909V31H16.6818V29.0909Z" stroke="#F4F4F4" stroke-width="2"/>
</svg>
