<svg width="35" height="35" viewBox="0 0 35 35" fill="none" xmlns="http://www.w3.org/2000/svg">
<path id="Vector" d="M23.1306 21.5919L27.059 18.647C31.7155 15.1528 33.7767 8.10667 32.7355 2.38219C27.0091 1.34102 19.963 3.40222 16.4707 8.05865L13.5258 11.987M23.1306 21.5919L16.4073 26.3943L8.72339 18.7104L13.5258 11.987M23.1306 21.5919V26.7151C23.1306 28.3776 22.5914 29.9954 21.5939 31.3254L20.2492 33.1177L18.3282 31.1967M13.5258 11.987H8.40259C6.74003 11.987 5.12231 12.5263 3.79226 13.5238L2 14.8685L3.92097 16.7894M10.6444 29.2757L3.92097 31.1967L6.16082 24.4733M24.0911 12.9475C24.6006 12.9475 25.0892 12.7451 25.4495 12.3849C25.8097 12.0246 26.0121 11.536 26.0121 11.0265C26.0121 10.5171 25.8097 10.0285 25.4495 9.66821C25.0892 9.30796 24.6006 9.10558 24.0911 9.10558C23.5817 9.10558 23.0931 9.30796 22.7328 9.66821C22.3726 10.0285 22.1702 10.5171 22.1702 11.0265C22.1702 11.536 22.3726 12.0246 22.7328 12.3849C23.0931 12.7451 23.5817 12.9475 24.0911 12.9475Z" stroke="#B8FE22" stroke-width="3" stroke-linecap="round" stroke-linejoin="round"/>
</svg>
