<svg width="35" height="35" viewBox="0 0 35 35" fill="none" xmlns="http://www.w3.org/2000/svg">
<path id="Vector" d="M31.0349 10.6427V8.31768C31.0349 7.4955 30.6911 6.70701 30.0792 6.12564C29.4672 5.54428 28.6372 5.21768 27.7718 5.21768H4.92966C4.06422 5.21768 3.23422 5.54428 2.62226 6.12564C2.0103 6.70701 1.6665 7.4955 1.6665 8.31768V30.0177C1.6665 30.8398 2.0103 31.6283 2.62226 32.2097C3.23422 32.7911 4.06422 33.1177 4.92966 33.1177H10.6402M22.877 2.11768V8.31768M9.8244 2.11768V8.31768M1.6665 14.5177H9.8244M25.3244 26.1427L22.877 24.2827V20.7177M32.6665 23.8177C32.6665 28.9539 28.2836 33.1177 22.877 33.1177C17.4705 33.1177 13.0876 28.9539 13.0876 23.8177C13.0876 18.6814 17.4705 14.5177 22.877 14.5177C28.2836 14.5177 32.6665 18.6814 32.6665 23.8177Z" stroke="#B8FE22" stroke-width="3" stroke-linecap="round" stroke-linejoin="round"/>
</svg>
