<svg width="41" height="41" viewBox="0 0 41 41" fill="none" xmlns="http://www.w3.org/2000/svg">
<rect width="41" height="41" rx="20.5" fill="#56B33D"/>
<path d="M15.8242 20.5L18.9371 23.6258L25.1758 17.3741" stroke="white" stroke-width="2" stroke-linecap="round" stroke-linejoin="round"/>
<path d="M18.8854 8.16458C19.7767 7.4025 21.2362 7.4025 22.1404 8.16458L24.1812 9.92125C24.5687 10.2571 25.2921 10.5283 25.8087 10.5283H28.0046C29.3737 10.5283 30.4975 11.6521 30.4975 13.0212V15.2171C30.4975 15.7208 30.7687 16.4571 31.1046 16.8446L32.8612 18.8854C33.6233 19.7767 33.6233 21.2362 32.8612 22.1404L31.1046 24.1812C30.7687 24.5687 30.4975 25.2921 30.4975 25.8087V28.0046C30.4975 29.3737 29.3737 30.4975 28.0046 30.4975H25.8087C25.305 30.4975 24.5687 30.7687 24.1812 31.1046L22.1404 32.8612C21.2492 33.6233 19.7896 33.6233 18.8854 32.8612L16.8446 31.1046C16.4571 30.7687 15.7337 30.4975 15.2171 30.4975H12.9825C11.6133 30.4975 10.4896 29.3737 10.4896 28.0046V25.7958C10.4896 25.2921 10.2183 24.5687 9.89541 24.1812L8.15166 22.1275C7.40249 21.2362 7.40249 19.7896 8.15166 18.8983L9.89541 16.8446C10.2183 16.4571 10.4896 15.7337 10.4896 15.23V13.0083C10.4896 11.6392 11.6133 10.5154 12.9825 10.5154H15.2171C15.7208 10.5154 16.4571 10.2442 16.8446 9.90833L18.8854 8.16458Z" stroke="white" stroke-width="1.5" stroke-linecap="round" stroke-linejoin="round"/>
</svg>
