<svg width="52" height="52" viewBox="0 0 52 52" fill="none" xmlns="http://www.w3.org/2000/svg">
<g id="Service Icons=Stationary Bike">
<path id="Vector" d="M36.4867 26.9532L14.0183 25.0682C13.1431 25.002 12.2631 25.09 11.4183 25.3282C9.70835 25.7749 8.19524 26.777 7.11673 28.1771C6.03822 29.5772 5.45545 31.2959 5.45999 33.0632V33.3882C5.45865 34.4851 5.68301 35.5704 6.11912 36.5769C6.55523 37.5833 7.19376 38.4892 7.99499 39.2382C8.43282 39.6416 8.91216 39.9975 9.42499 40.2999C10.5185 40.9287 11.7413 41.2993 13 41.3832C13.3242 41.4157 13.6508 41.4157 13.975 41.3832L36.3133 39.5416C37.9074 39.4266 39.399 38.7126 40.4882 37.543C41.5775 36.3734 42.1836 34.8348 42.185 33.2366V33.1066C42.1892 31.5505 41.6038 30.0505 40.5465 28.9088C39.4891 27.767 38.0385 27.0683 36.4867 26.9532Z" stroke="#B8FE22" stroke-linecap="round" stroke-linejoin="round"/>
<path id="Vector_2" d="M12.9996 15.1666L6.49961 15.2749C5.9996 15.2823 5.50471 15.1734 5.05396 14.9569C4.60321 14.7403 4.20893 14.422 3.90221 14.0271C3.59549 13.6321 3.38472 13.1713 3.28651 12.681C3.18829 12.1906 3.20533 11.6842 3.33628 11.2016C3.5356 10.4706 4.00315 9.84155 4.64569 9.43996C5.28822 9.03838 6.05851 8.89375 6.80294 9.03491L12.9996 11.2449C13.411 11.3204 13.7877 11.5247 14.0753 11.8283C14.363 12.132 14.5466 12.5192 14.5996 12.9341C14.6527 13.3489 14.5725 13.7699 14.3705 14.1362C14.1686 14.5025 13.8554 14.795 13.4763 14.9716L13.1296 15.1666C13.087 15.1776 13.0422 15.1776 12.9996 15.1666Z" stroke="#B8FE22" stroke-linecap="round" stroke-linejoin="round"/>
<path id="Vector_3" d="M11.4185 25.3284L7.99512 15.1667" stroke="#B8FE22" stroke-linecap="round" stroke-linejoin="round"/>
<path id="Vector_4" d="M28.5781 9.29492L36.4865 26.9533" stroke="#B8FE22" stroke-linecap="round" stroke-linejoin="round"/>
<path id="Vector_5" d="M26 9.29501H34.0167C35.1429 9.29035 36.2231 8.8474 37.0283 8.06001C37.8237 7.25823 38.2746 6.17763 38.285 5.04834" stroke="#B8FE22" stroke-linecap="round" stroke-linejoin="round"/>
<path id="Vector_6" d="M24.4613 26C24.5127 25.5941 24.6779 25.211 24.938 24.895C26.0822 23.5491 27.4935 22.4554 29.0823 21.6832C30.6712 20.911 32.4031 20.4771 34.1683 20.4089C35.9336 20.3408 37.6938 20.6398 39.3375 21.2872C40.9812 21.9346 42.4725 22.9162 43.7172 24.1699C44.9618 25.4236 45.9326 26.922 46.5681 28.5703C47.2036 30.2186 47.49 31.9809 47.409 33.7457C47.3281 35.5104 46.8817 37.2391 46.098 38.8223C45.3143 40.4056 44.2105 41.8089 42.8563 42.9434C41.5794 44.0155 40.1083 44.832 38.523 45.3484C37.2476 45.7523 35.9175 45.9569 34.5796 45.955C32.7389 45.9536 30.9203 45.5539 29.2486 44.7835C27.5768 44.0131 26.0916 42.8901 24.8946 41.4917C24.632 41.1857 24.4661 40.8087 24.418 40.4084L36.313 39.4984C37.9071 39.3834 39.3986 38.6694 40.4879 37.4998C41.5771 36.3302 42.1833 34.7916 42.1846 33.1934V33.0634C42.1826 31.504 41.5887 30.0036 40.5229 28.8654C39.457 27.7272 37.9988 27.036 36.443 26.9317L24.4613 26Z" stroke="#B8FE22" stroke-linecap="round" stroke-linejoin="round"/>
<path id="Vector_7" d="M11.4181 41.3616L7.45312 47.0166" stroke="#B8FE22" stroke-linecap="round" stroke-linejoin="round"/>
<path id="Vector_8" d="M44.5469 41.2966L48.7285 47.0166" stroke="#B8FE22" stroke-linecap="round" stroke-linejoin="round"/>
</g>
</svg>
