<svg width="53" height="52" viewBox="0 0 53 52" fill="none" xmlns="http://www.w3.org/2000/svg">
<g id="Service Icons=Heart Beat">
<path id="Vector" d="M26.5523 18.005L28.4806 16.0984C30.0041 14.5768 32.0691 13.7222 34.2223 13.7222C36.3754 13.7222 38.4405 14.5768 39.9639 16.0984C43.1273 19.2617 42.9973 23.79 39.9639 27.5817C39.9639 27.5817 31.0373 38.285 26.5523 38.285C22.0673 38.285 13.1406 27.5817 13.1406 27.5817C11.7393 25.9973 10.9658 23.9552 10.9658 21.84C10.9658 19.7249 11.7393 17.6827 13.1406 16.0984C14.6641 14.5768 16.7292 13.7222 18.8823 13.7222C21.0354 13.7222 23.1005 14.5768 24.6239 16.0984L26.5523 18.005Z" stroke="#B8FE22" stroke-linecap="round" stroke-linejoin="round"/>
<path id="Vector_2" d="M9.56641 27.3217H20.7031L22.4581 24.9817L25.7947 29.64" stroke="#B8FE22" stroke-linecap="round" stroke-linejoin="round"/>
<path id="Vector_3" d="M43.5389 27.2351H32.0556L29.8889 22.3601L25.7939 29.6401" stroke="#B8FE22" stroke-linecap="round" stroke-linejoin="round"/>
<path id="Vector_4" d="M49.3027 11.44C49.3027 10.3645 49.0909 9.29948 48.6793 8.30582C48.2677 7.31217 47.6645 6.40931 46.9039 5.6488C46.1434 4.88828 45.2406 4.28501 44.2469 3.87343C43.2533 3.46184 42.1883 3.25 41.1127 3.25H11.9927C10.9172 3.25 9.85221 3.46184 8.85856 3.87343C7.8649 4.28501 6.96204 4.88828 6.20153 5.6488C5.44102 6.40931 4.83775 7.31217 4.42616 8.30582C4.01457 9.29948 3.80273 10.3645 3.80273 11.44V40.56C3.80273 42.7321 4.66561 44.8153 6.20153 46.3512C6.96204 47.1117 7.8649 47.715 8.85856 48.1266C9.85221 48.5382 10.9172 48.75 11.9927 48.75H41.1127C43.2849 48.75 45.368 47.8871 46.9039 46.3512C48.4399 44.8153 49.3027 42.7321 49.3027 40.56V11.44Z" stroke="#B8FE22" stroke-linecap="round" stroke-linejoin="round"/>
</g>
</svg>
