<svg width="53" height="52" viewBox="0 0 53 52" fill="none" xmlns="http://www.w3.org/2000/svg">
<g id="Service Icons=Locker">
<path id="Vector" d="M49.1191 46.2799V11.8299C49.1191 9.65777 48.2563 7.57461 46.7203 6.03869C45.1844 4.50277 43.1013 3.63989 40.9291 3.63989H26.3691V48.3599H47.0175C47.5661 48.3439 48.0882 48.1202 48.4783 47.7341C48.8684 47.348 49.0974 46.8283 49.1191 46.2799Z" stroke="#B8FE22" stroke-linecap="round" stroke-linejoin="round"/>
<path id="Vector_2" d="M3.61914 46.2799V11.8299C3.61914 9.65777 4.48201 7.57461 6.01794 6.03869C7.55386 4.50277 9.63702 3.63989 11.8091 3.63989H26.3691V48.3599H5.72081C5.17219 48.3439 4.65011 48.1202 4.26 47.7341C3.8699 47.348 3.64086 46.8283 3.61914 46.2799Z" stroke="#B8FE22" stroke-linecap="round" stroke-linejoin="round"/>
<path id="Vector_3" d="M18.8291 11.4617H11.6357" stroke="#B8FE22" stroke-linecap="round" stroke-linejoin="round"/>
<path id="Vector_4" d="M41.0808 11.4617H33.9092" stroke="#B8FE22" stroke-linecap="round" stroke-linejoin="round"/>
<path id="Vector_5" d="M18.8291 16.5532H11.6357" stroke="#B8FE22" stroke-linecap="round" stroke-linejoin="round"/>
<path id="Vector_6" d="M41.0808 16.5532H33.9092" stroke="#B8FE22" stroke-linecap="round" stroke-linejoin="round"/>
<path id="Vector_7" d="M26.3696 24.2884V36.6167H22.7946C22.22 36.6167 21.6689 36.3884 21.2625 35.9821C20.8562 35.5758 20.6279 35.0247 20.6279 34.4501V26.3901C20.6279 25.8154 20.8562 25.2643 21.2625 24.858C21.6689 24.4517 22.22 24.2234 22.7946 24.2234L26.3696 24.2884Z" stroke="#B8FE22" stroke-linecap="round" stroke-linejoin="round"/>
<path id="Vector_8" d="M49.0112 24.2884V36.6167H45.4362C44.8616 36.6167 44.3105 36.3884 43.9041 35.9821C43.4978 35.5758 43.2695 35.0247 43.2695 34.4501V26.3901C43.2695 25.8154 43.4978 25.2643 43.9041 24.858C44.3105 24.4517 44.8616 24.2234 45.4362 24.2234L49.0112 24.2884Z" stroke="#B8FE22" stroke-linecap="round" stroke-linejoin="round"/>
</g>
</svg>
