<svg width="53" height="52" viewBox="0 0 53 52" fill="none" xmlns="http://www.w3.org/2000/svg">
<g id="Service Icons=Pills">
<path id="Vector" d="M16.8408 6.02333C16.8408 4.485 21.1742 3.25 26.4608 3.25C31.7475 3.25 36.0592 4.485 36.0808 6.02333C36.0808 7.56167 31.7475 8.81833 26.4608 8.81833C21.1742 8.81833 16.8408 7.58333 16.8408 6.045V6.02333Z" stroke="#B8FE22" stroke-linecap="round" stroke-linejoin="round"/>
<path id="Vector_2" d="M34.6509 14.4949L35.2793 18.1999L38.0093 20.9516C38.6906 21.6138 39.2331 22.4051 39.6051 23.2793C39.9771 24.1536 40.1712 25.0932 40.1759 26.0433V43.5716C40.1707 44.1959 39.9916 44.8065 39.6586 45.3347C39.3256 45.8628 38.852 46.2877 38.2909 46.5616C34.5665 48.1329 30.544 48.8723 26.5043 48.7283C22.4645 48.8723 18.442 48.1329 14.7176 46.5616C14.1565 46.2877 13.6829 45.8628 13.3499 45.3347C13.0169 44.8065 12.8378 44.1959 12.8326 43.5716V26.8016C12.8191 25.5949 13.048 24.3978 13.5058 23.2813C13.9635 22.1647 14.6409 21.1515 15.4976 20.3016L17.6643 18.1349L18.2926 14.4299C20.8998 15.417 23.674 15.8879 26.4609 15.8166C29.2508 15.9115 32.0325 15.4626 34.6509 14.4949Z" stroke="#B8FE22" stroke-linecap="round" stroke-linejoin="round"/>
<path id="Vector_3" d="M18.2708 14.4951C17.3608 14.0618 16.8408 13.5634 16.8408 13.0218V6.02344C16.8408 7.56177 21.1742 8.81844 26.4608 8.81844C31.7475 8.81844 36.0808 7.56177 36.0808 6.02344V13.0001C36.0808 13.5418 35.5608 14.0401 34.6508 14.4734C32.0339 15.4485 29.2521 15.9048 26.4608 15.8168C23.6709 15.9117 20.8892 15.4628 18.2708 14.4951Z" stroke="#B8FE22" stroke-linecap="round" stroke-linejoin="round"/>
<path id="Vector_4" d="M24.1641 32.0883L26.4607 29.7917C27.0785 29.1739 27.9163 28.8269 28.7899 28.8269C29.6635 28.8269 30.5013 29.1739 31.1191 29.7917C31.7368 30.4094 32.0838 31.2472 32.0838 32.1208C32.0838 32.9944 31.7368 33.8323 31.1191 34.45L28.8224 36.8333L24.1641 32.0883Z" stroke="#B8FE22" stroke-linecap="round" stroke-linejoin="round"/>
<path id="Vector_5" d="M24.1643 32.0884L28.8226 36.8334L26.4609 39C26.1551 39.3073 25.7917 39.5514 25.3915 39.7182C24.9913 39.8851 24.5622 39.9715 24.1286 39.9725C23.253 39.9745 22.4124 39.6286 21.7918 39.0109C21.1712 38.3931 20.8214 37.5542 20.8193 36.6785C20.8173 35.8029 21.1632 34.9623 21.7809 34.3417L24.1643 32.0884Z" stroke="#B8FE22" stroke-linecap="round" stroke-linejoin="round"/>
</g>
</svg>
