<svg width="53" height="52" viewBox="0 0 53 52" fill="none" xmlns="http://www.w3.org/2000/svg">
<g id="Service Icons=Sit Up">
<path id="Vector" d="M19.1587 28.8384C19.8984 28.962 20.6241 29.1579 21.3254 29.4234C23.8218 30.8136 26.0876 32.5824 28.042 34.6668C28.7691 35.3684 29.74 35.7605 30.7504 35.7605C31.7608 35.7605 32.7317 35.3684 33.4587 34.6668L38.0087 30.3334C38.3082 30.038 38.6696 29.8127 39.0668 29.6741C39.464 29.5354 39.8871 29.4868 40.3054 29.5318C40.7378 29.5647 41.1572 29.6948 41.5324 29.9124C41.9075 30.13 42.2287 30.4294 42.472 30.7884L48.6254 40.0184C48.7666 40.2295 48.8643 40.4666 48.9127 40.7159C48.961 40.9651 48.9591 41.2216 48.907 41.4701C48.7997 41.9715 48.5053 42.4132 48.0837 42.7051L47.7587 42.9001C44.4654 45.2184 40.1104 37.4834 40.1104 37.4834C39.1877 38.9811 38.0894 40.3631 36.8387 41.6001C35.6909 42.9468 34.2802 44.0449 32.6931 44.8273C31.106 45.6096 29.3759 46.0598 27.6087 46.1501C23.9192 45.7386 20.4502 44.1859 17.6854 41.7084C3.62371 30.8751 3.32038 24.8084 3.47204 23.7684C3.54299 23.2519 3.81565 22.7845 4.23038 22.4684L4.42538 22.2084C4.83347 21.9092 5.34189 21.7804 5.84322 21.8491C6.34455 21.9179 6.79953 22.1788 7.11204 22.5768C7.84871 23.5084 9.40871 25.3718 10.9254 27.1268L12.3554 28.7518C14.609 28.3594 16.9158 28.3888 19.1587 28.8384Z" stroke="#B8FE22" stroke-linecap="round" stroke-linejoin="round"/>
<path id="Vector_2" d="M10.9254 27.1267C10.615 26.4463 10.4526 25.7078 10.4487 24.96C10.4368 24.0784 10.6473 23.208 11.0609 22.4294C11.4744 21.6507 12.0777 20.9889 12.8148 20.5052C13.5519 20.0214 14.3991 19.7314 15.278 19.6618C16.157 19.5923 17.0392 19.7455 17.8433 20.1073C18.6473 20.4691 19.3471 21.0279 19.8779 21.7318C20.4088 22.4357 20.7536 23.2622 20.8804 24.1347C21.0072 25.0072 20.912 25.8976 20.6034 26.7235C20.2949 27.5495 19.7831 28.2843 19.1154 28.86C16.8653 28.415 14.5535 28.3784 12.2904 28.7517C11.9004 28.1667 11.4021 27.69 10.9254 27.1267Z" stroke="#B8FE22" stroke-linecap="round" stroke-linejoin="round"/>
<path id="Vector_3" d="M35.0186 9.16504L38.9186 13L35.0186 16.8784" stroke="#B8FE22" stroke-miterlimit="10" stroke-linecap="round"/>
<path id="Vector_4" d="M27.3701 13H38.9184" stroke="#B8FE22" stroke-linecap="round" stroke-linejoin="round"/>
</g>
</svg>
