<svg width="53" height="52" viewBox="0 0 53 52" fill="none" xmlns="http://www.w3.org/2000/svg">
<g id="Service Icons=Weightlifting">
<path id="Vector" d="M39.2765 14.69C39.4343 14.7018 39.5837 14.7657 39.7014 14.8715C39.819 14.9774 39.8982 15.1193 39.9265 15.275C40.9665 19.6083 45.7332 30.9833 44.5848 36.9417C43.1115 44.6116 40.2515 47.2766 35.3115 47.97C30.3715 48.6633 13.8398 47.6667 13.8398 47.6667C7.57817 46.4967 3.5265 42.6833 3.5265 36.985C3.51491 34.6897 4.27093 32.4565 5.67436 30.6402C7.0778 28.824 9.04811 27.5291 11.272 26.9612C13.496 26.3934 15.8459 26.5853 17.9483 27.5065C20.0506 28.4276 21.7847 30.0251 22.8748 32.045C24.2845 31.3555 25.8339 30.9996 27.4032 31.005C28.5921 31.0055 29.7722 31.2107 30.8915 31.6117C30.1565 29.621 29.7824 27.5153 29.7865 25.3933C29.8278 23.2458 29.5054 21.1067 28.8332 19.0667C28.257 17.2603 27.0494 15.7219 25.4315 14.7333L27.4682 14.9717C28.0098 12.0683 30.0465 9.01332 32.2565 10.0317C34.4665 11.05 32.2565 13.6717 32.2565 13.6717C32.5845 14.2231 32.9694 14.7387 33.4048 15.21C35.5282 15.1667 37.7598 14.885 39.2765 14.69Z" stroke="#B8FE22" stroke-linecap="round" stroke-linejoin="round"/>
<path id="Vector_2" d="M34.943 16.6616C34.4189 16.2433 33.9331 15.7793 33.4913 15.275M27.5546 15.0366C27.4972 15.3297 27.461 15.6266 27.4463 15.925" stroke="#B8FE22" stroke-linecap="round" stroke-linejoin="round"/>
<path id="Vector_3" d="M22.875 32.0884C21.6753 32.7464 20.7354 33.7933 20.21 35.0567" stroke="#B8FE22" stroke-linecap="round" stroke-linejoin="round"/>
<path id="Vector_4" d="M30.9346 31.655C30.9346 31.655 32.7979 32.0884 34.4012 35.0567" stroke="#B8FE22" stroke-linecap="round" stroke-linejoin="round"/>
<path id="Vector_5" d="M23.1994 7.53993C23.1994 6.76216 22.8919 6.01593 22.344 5.46394C21.796 4.91196 21.0521 4.59898 20.2744 4.59326H17.761C17.3751 4.59325 16.9929 4.66962 16.6366 4.81797C16.2803 4.96632 15.9569 5.18371 15.685 5.45762C15.4131 5.73153 15.1981 6.05654 15.0524 6.41392C14.9067 6.77131 14.8332 7.15399 14.836 7.53993V14.8199C14.8332 15.2059 14.9067 15.5885 15.0524 15.9459C15.1981 16.3033 15.4131 16.6283 15.685 16.9022C15.9569 17.1761 16.2803 17.3935 16.6366 17.5419C16.9929 17.6902 17.3751 17.7666 17.761 17.7666H20.2744C21.0521 17.7609 21.796 17.4479 22.344 16.8959C22.8919 16.3439 23.1994 15.5977 23.1994 14.8199V7.53993Z" stroke="#B8FE22" stroke-linecap="round" stroke-linejoin="round"/>
<path id="Vector_6" d="M40.6417 14.82V7.54001C40.6416 7.15122 40.7186 6.76627 40.868 6.40734C41.0175 6.04842 41.2364 5.72261 41.5124 5.4487C41.7883 5.17479 42.1157 4.9582 42.4757 4.81139C42.8357 4.66459 43.2212 4.59048 43.61 4.59334H46.1233C46.8973 4.60472 47.6357 4.92019 48.179 5.47157C48.7222 6.02295 49.0267 6.76595 49.0267 7.54001V14.82C49.0267 15.5978 48.7192 16.344 48.1713 16.896C47.6233 17.448 46.8794 17.761 46.1017 17.7667H43.2633C42.5394 17.6864 41.8709 17.3408 41.3868 16.7966C40.9027 16.2525 40.6372 15.5483 40.6417 14.82Z" stroke="#B8FE22" stroke-linecap="round" stroke-linejoin="round"/>
<path id="Vector_7" d="M25.4742 14.7984L23.1992 14.4734V7.97343L24.1092 7.75677L25.5609 7.56177C26.1242 8.99177 28.7892 9.72843 32.0609 9.72843C35.3326 9.72843 37.9109 8.94843 38.5609 7.56177L39.4709 7.69177L40.7709 7.90843V14.4084L39.2759 14.6901C37.8459 14.8851 35.6142 15.1668 33.5342 15.2751C33.097 14.8 32.7053 14.285 32.3642 13.7368C32.3642 13.7368 34.7909 11.2234 32.3642 10.0968C29.9376 8.9701 28.1392 12.1334 27.5976 15.0368L25.4742 14.7984Z" stroke="#B8FE22" stroke-linecap="round" stroke-linejoin="round"/>
<path id="Vector_8" d="M25.5827 7.56156C25.5506 7.14329 25.5506 6.72317 25.5827 6.30489C25.5827 4.50656 28.5077 3.63989 32.0827 3.63989C35.6577 3.63989 38.5827 4.50656 38.5827 6.30489C38.5788 6.72594 38.5426 7.14607 38.4743 7.56156C37.8893 8.99156 35.2243 9.72823 31.9743 9.72823C28.7243 9.72823 26.146 8.99156 25.5827 7.56156Z" stroke="#B8FE22" stroke-linecap="round" stroke-linejoin="round"/>
</g>
</svg>
