<svg width="53" height="52" viewBox="0 0 53 52" fill="none" xmlns="http://www.w3.org/2000/svg">
<g id="Service Icons=Yoga">
<path id="Vector" d="M21.0063 27.8199L13.293 33.9516C13.0622 34.1033 12.0482 34.3814 11.7763 34.4298C11.5044 34.4782 11.9803 34.296 11.7113 34.2332C11.7113 34.2332 2.13466 34.2332 3.58633 28.1666C3.70481 27.6642 4.01766 27.2292 4.4563 26.9571C4.89494 26.685 5.42358 26.5979 5.92633 26.7149L11.7763 28.1016C11.7763 28.1016 18.5363 21.6016 26.1847 21.6016C33.833 21.6016 40.5497 28.1016 40.5497 28.1016L46.3997 26.7149C46.9024 26.5979 47.4311 26.685 47.8697 26.9571C48.3083 27.2292 48.6212 27.6642 48.7397 28.1666C50.1913 34.2549 40.6147 34.2549 40.6147 34.2549C40.3457 34.3176 40.0668 34.325 39.7949 34.2766C39.523 34.2282 39.2638 34.125 39.033 33.9732L31.3197 27.8416C31.3394 29.9603 31.6455 32.0666 32.2297 34.1032C33.703 36.6166 37.6897 37.6782 40.7013 40.0399C44.1247 42.7049 42.413 48.3816 35.4147 45.1749C32.4424 43.8096 29.3533 42.7147 26.1847 41.9032C22.9931 42.699 19.8817 43.7869 16.8897 45.1532C9.89133 48.3599 8.223 42.6832 11.603 40.0182C14.6147 37.6566 18.6013 36.5949 20.0747 34.0816C20.6661 32.0459 20.9795 29.9396 21.0063 27.8199Z" stroke="#B8FE22" stroke-linecap="round" stroke-linejoin="round"/>
<path id="Vector_2" d="M32.2078 40.8201C26.908 41.4273 21.7419 42.8908 16.9111 45.1534" stroke="#B8FE22" stroke-linecap="round" stroke-linejoin="round"/>
<path id="Vector_3" d="M26.1842 16.2282C29.0441 16.2282 31.3625 13.9098 31.3625 11.0499C31.3625 8.19 29.0441 5.87158 26.1842 5.87158C23.3243 5.87158 21.0059 8.19 21.0059 11.0499C21.0059 13.9098 23.3243 16.2282 26.1842 16.2282Z" stroke="#B8FE22" stroke-linecap="round" stroke-linejoin="round"/>
</g>
</svg>
