<svg width="200" height="201" viewBox="0 0 200 201" fill="none" xmlns="http://www.w3.org/2000/svg">
<g clip-path="url(#clip0_125_4514)">
<path d="M121.369 8.34152C113.939 15.7346 110.089 28.6201 112.889 38.7097C114.379 44.043 114.619 50.5007 110.689 54.4211L97.8893 67.1574C97.7312 67.3186 97.6147 67.5156 97.5499 67.7314C97.4851 67.9472 97.4738 68.1755 97.5171 68.3965C97.5603 68.6176 97.6568 68.825 97.7983 69.0008C97.9397 69.1767 98.1219 69.3158 98.3293 69.4062C113.121 75.7164 124.908 87.4444 131.249 102.162C131.34 102.371 131.48 102.554 131.657 102.696C131.835 102.838 132.044 102.935 132.268 102.978C132.492 103.021 132.723 103.009 132.941 102.943C133.159 102.877 133.357 102.76 133.519 102.6L146.319 89.8639C150.249 85.9535 156.739 86.1923 162.099 87.6749C172.239 90.4609 185.189 86.6301 192.619 79.237C197.344 74.537 199.999 68.1619 200 61.5142C200.001 54.8665 197.348 48.4906 192.624 43.7893C190.285 41.4614 187.509 39.6147 184.453 38.3547C181.396 37.0946 178.121 36.4458 174.813 36.4453C168.132 36.4444 161.724 39.0843 156.999 43.7843C161.723 39.083 164.376 32.7071 164.375 26.0594C164.374 19.4116 161.719 13.0365 156.994 8.33654C152.269 3.63654 145.862 0.996626 139.181 0.997559C132.5 0.998492 126.093 3.64019 121.369 8.34152ZM7.37926 157.217C12.1044 161.914 18.5103 164.552 25.1893 164.552C31.8683 164.552 38.2741 161.914 42.9993 157.217C38.2758 161.918 35.6226 168.294 35.6236 174.942C35.6245 181.59 38.2794 187.965 43.0043 192.665C47.7291 197.365 54.1368 200.005 60.8178 200.004C67.4988 200.003 73.9058 197.361 78.6293 192.66C86.0593 185.267 89.9093 172.381 87.1093 162.292C85.6193 156.958 85.3792 150.501 89.3092 146.58L102.109 133.844C102.267 133.683 102.384 133.486 102.449 133.27C102.513 133.054 102.525 132.826 102.481 132.605C102.438 132.384 102.342 132.176 102.2 132.001C102.059 131.825 101.877 131.686 101.669 131.595C86.8777 125.285 75.091 113.557 68.7493 98.839C68.6589 98.6309 68.5189 98.4479 68.3414 98.3058C68.1638 98.1637 67.9541 98.0669 67.7304 98.0238C67.5068 97.9807 67.2759 97.9925 67.0578 98.0583C66.8398 98.124 66.6412 98.2418 66.4793 98.4012L53.6793 111.138C49.7493 115.048 43.2593 114.809 37.8993 113.327C27.7593 110.541 14.8093 114.371 7.37926 121.764C2.65585 126.466 0.00244141 132.843 0.00244141 139.491C0.00244141 146.139 2.65585 152.515 7.37926 157.217Z" fill="#B8FE22"/>
<path opacity="0.5" d="M62.5 30.8482C62.5 32.8275 63.2902 34.7256 64.6967 36.1252C66.1032 37.5247 68.0109 38.3109 70 38.3109C71.9891 38.3109 73.8968 37.5247 75.3033 36.1252C76.7098 34.7256 77.5 32.8275 77.5 30.8482V20.898C77.5 18.9188 76.7098 17.0206 75.3033 15.6211C73.8968 14.2215 71.9891 13.4353 70 13.4353C68.0109 13.4353 66.1032 14.2215 64.6967 15.6211C63.2902 17.0206 62.5 18.9188 62.5 20.898V30.8482ZM48.74 38.9378C49.456 39.6265 50.027 40.4503 50.4196 41.3609C50.8122 42.2716 51.0187 43.2509 51.0268 44.2418C51.035 45.2327 50.8448 46.2153 50.4672 47.1323C50.0897 48.0492 49.5324 48.8822 48.8279 49.5825C48.1234 50.2829 47.2857 50.8366 46.3638 51.2114C45.4419 51.5862 44.4542 51.7746 43.4584 51.7655C42.4626 51.7564 41.4785 51.5501 40.5637 51.1586C39.6488 50.767 38.8215 50.1981 38.13 49.4851L23.99 35.4254C23.2531 34.7421 22.6621 33.9183 22.2522 33.0028C21.8423 32.0874 21.6219 31.0992 21.6041 30.0972C21.5863 29.0952 21.7716 28.0999 22.1488 27.1707C22.526 26.2414 23.0874 25.3973 23.7996 24.6887C24.5118 23.98 25.3601 23.4214 26.294 23.046C27.2279 22.6707 28.2282 22.4864 29.2352 22.504C30.2423 22.5217 31.2354 22.741 32.1554 23.1489C33.0754 23.5568 33.9034 24.1449 34.59 24.8781L48.74 38.9378ZM161.88 151.505C160.473 150.105 158.565 149.318 156.575 149.318C154.585 149.318 152.677 150.105 151.27 151.505C149.863 152.905 149.073 154.804 149.073 156.784C149.073 158.763 149.863 160.662 151.27 162.062L165.41 176.132C166.832 177.45 168.712 178.168 170.655 178.134C172.598 178.099 174.452 177.316 175.826 175.949C177.2 174.582 177.987 172.737 178.022 170.804C178.056 168.87 177.335 166.999 176.01 165.585L161.88 151.505ZM130 162.689C131.989 162.689 133.897 163.475 135.303 164.875C136.71 166.274 137.5 168.172 137.5 170.152V180.102C137.5 182.081 136.71 183.979 135.303 185.379C133.897 186.778 131.989 187.565 130 187.565C128.011 187.565 126.103 186.778 124.697 185.379C123.29 183.979 122.5 182.081 122.5 180.102V170.152C122.5 168.172 123.29 166.274 124.697 164.875C126.103 163.475 128.011 162.689 130 162.689ZM30 78.1119C31.9891 78.1119 33.8968 77.3257 35.3033 75.9261C36.7098 74.5266 37.5 72.6285 37.5 70.6492C37.5 68.67 36.7098 66.7718 35.3033 65.3723C33.8968 63.9728 31.9891 63.1865 30 63.1865H20C18.0109 63.1865 16.1032 63.9728 14.6967 65.3723C13.2902 66.7718 12.5 68.67 12.5 70.6492C12.5 72.6285 13.2902 74.5266 14.6967 75.9261C16.1032 77.3257 18.0109 78.1119 20 78.1119H30ZM162.5 130.351C162.5 128.371 163.29 126.473 164.697 125.074C166.103 123.674 168.011 122.888 170 122.888H180C181.989 122.888 183.897 123.674 185.303 125.074C186.71 126.473 187.5 128.371 187.5 130.351C187.5 132.33 186.71 134.228 185.303 135.628C183.897 137.027 181.989 137.813 180 137.813H170C168.011 137.813 166.103 137.027 164.697 135.628C163.29 134.228 162.5 132.33 162.5 130.351Z" fill="#B8FE22"/>
</g>
<defs>
<clipPath id="clip0_125_4514">
<rect width="200" height="200" fill="white" transform="translate(0 0.5)"/>
</clipPath>
</defs>
</svg>

