<svg width="21" height="27" viewBox="0 0 21 27" fill="none" xmlns="http://www.w3.org/2000/svg">
<path d="M4.81055 10.7891V8.38908C4.81055 4.41702 5.7158 1.18896 10.2421 1.18896C14.7684 1.18896 15.6736 4.41702 15.6736 8.38908V10.7891" stroke="#55A6C4" stroke-width="2.3775" stroke-linecap="round" stroke-linejoin="round"/>
<path d="M14.7673 25.1888H5.71475C2.09373 25.1888 1.18848 23.9888 1.18848 19.1887V16.7887C1.18848 11.9886 2.09373 10.7886 5.71475 10.7886H14.7673C18.3883 10.7886 19.2936 11.9886 19.2936 16.7887V19.1887C19.2936 23.9888 18.3883 25.1888 14.7673 25.1888Z" stroke="#55A6C4" stroke-width="2.3775" stroke-linecap="round" stroke-linejoin="round"/>
<path d="M10.392 20.7911C11.6419 20.7911 12.6552 19.4479 12.6552 17.7911C12.6552 16.1342 11.6419 14.791 10.392 14.791C9.14216 14.791 8.12891 16.1342 8.12891 17.7911C8.12891 19.4479 9.14216 20.7911 10.392 20.7911Z" stroke="#55A6C4" stroke-width="2.3775" stroke-linecap="round" stroke-linejoin="round"/>
</svg>
