<svg width="13" height="11" viewBox="0 0 13 11" fill="none" xmlns="http://www.w3.org/2000/svg">
<path d="M9.76471 10.5C9.76471 9.39543 8.2833 8.5 6.45588 8.5C4.62847 8.5 3.14706 9.39543 3.14706 10.5M12.4118 8.50025C12.4118 7.68012 11.5951 6.97529 10.4265 6.66667M0.5 8.50025C0.5 7.68012 1.31668 6.97529 2.48529 6.66667M10.4265 3.99074C10.8326 3.62452 11.0882 3.09233 11.0882 2.5C11.0882 1.39543 10.1994 0.5 9.10294 0.5C8.59447 0.5 8.13065 0.692569 7.77941 1.00926M2.48529 3.99074C2.07914 3.62452 1.82353 3.09233 1.82353 2.5C1.82353 1.39543 2.71238 0.5 3.80882 0.5C4.31729 0.5 4.78112 0.692569 5.13235 1.00926M6.45588 6.5C5.35943 6.5 4.47059 5.60457 4.47059 4.5C4.47059 3.39543 5.35943 2.5 6.45588 2.5C7.55233 2.5 8.44118 3.39543 8.44118 4.5C8.44118 5.60457 7.55233 6.5 6.45588 6.5Z" stroke="white" stroke-linecap="round" stroke-linejoin="round"/>
</svg>
